<svg width="833" height="244" viewBox="0 0 833 244" fill="none" xmlns="http://www.w3.org/2000/svg">
<path d="M64.5659 184L62.2259 177.196H52.5419L50.2379 184H45.3419L54.7739 158.188H60.0299L69.4619 184H64.5659ZM58.8059 166.612C58.7099 166.276 58.5659 165.82 58.3739 165.244C58.1819 164.668 57.9899 164.08 57.7979 163.48C57.6299 162.856 57.4979 162.34 57.4019 161.932C57.2819 162.412 57.1259 162.964 56.9339 163.588C56.7659 164.212 56.5979 164.8 56.4299 165.352C56.2859 165.904 56.1659 166.324 56.0699 166.612L53.8019 173.236H61.0379L58.8059 166.612ZM83.7142 164.128C84.0022 164.128 84.3382 164.14 84.7222 164.164C85.1062 164.188 85.4302 164.236 85.6942 164.308L85.2982 168.52C85.0822 168.472 84.7942 168.436 84.4342 168.412C84.0982 168.364 83.7982 168.34 83.5342 168.34C82.8142 168.34 82.1182 168.46 81.4462 168.7C80.7982 168.916 80.2102 169.252 79.6822 169.708C79.1782 170.14 78.7702 170.704 78.4582 171.4C78.1702 172.096 78.0262 172.924 78.0262 173.884V184H73.4902V164.488H76.9822L77.6302 167.872H77.8462C78.2302 167.176 78.7102 166.552 79.2862 166C79.8622 165.424 80.5222 164.968 81.2662 164.632C82.0342 164.296 82.8502 164.128 83.7142 164.128ZM100.615 164.128C100.903 164.128 101.239 164.14 101.623 164.164C102.007 164.188 102.331 164.236 102.595 164.308L102.199 168.52C101.983 168.472 101.695 168.436 101.335 168.412C100.999 168.364 100.699 168.34 100.435 168.34C99.7145 168.34 99.0185 168.46 98.3465 168.7C97.6985 168.916 97.1105 169.252 96.5825 169.708C96.0785 170.14 95.6705 170.704 95.3585 171.4C95.0705 172.096 94.9265 172.924 94.9265 173.884V184H90.3905V164.488H93.8825L94.5305 167.872H94.7465C95.1305 167.176 95.6105 166.552 96.1865 166C96.7625 165.424 97.4225 164.968 98.1665 164.632C98.9345 164.296 99.7505 164.128 100.615 164.128ZM114.364 164.128C116.884 164.128 118.792 164.68 120.088 165.784C121.408 166.864 122.068 168.568 122.068 170.896V184H118.864L117.964 181.3H117.82C117.268 181.996 116.692 182.584 116.092 183.064C115.516 183.52 114.844 183.844 114.076 184.036C113.332 184.252 112.42 184.36 111.34 184.36C110.188 184.36 109.144 184.144 108.208 183.712C107.296 183.28 106.576 182.62 106.048 181.732C105.52 180.82 105.256 179.68 105.256 178.312C105.256 176.296 105.988 174.784 107.452 173.776C108.94 172.744 111.184 172.18 114.184 172.084L117.568 171.976V171.004C117.568 169.756 117.268 168.868 116.668 168.34C116.068 167.812 115.228 167.548 114.148 167.548C113.164 167.548 112.216 167.692 111.304 167.98C110.392 168.268 109.504 168.604 108.64 168.988L107.2 165.82C108.16 165.316 109.252 164.908 110.476 164.596C111.724 164.284 113.02 164.128 114.364 164.128ZM115.192 174.856C113.2 174.928 111.82 175.276 111.052 175.9C110.284 176.5 109.9 177.316 109.9 178.348C109.9 179.26 110.176 179.92 110.728 180.328C111.28 180.736 111.988 180.94 112.852 180.94C114.172 180.94 115.288 180.568 116.2 179.824C117.112 179.056 117.568 177.928 117.568 176.44V174.784L115.192 174.856ZM142.116 178.348C142.116 179.644 141.804 180.748 141.18 181.66C140.556 182.548 139.632 183.22 138.408 183.676C137.208 184.132 135.732 184.36 133.98 184.36C132.612 184.36 131.436 184.264 130.452 184.072C129.468 183.88 128.532 183.58 127.644 183.172V179.32C128.604 179.776 129.672 180.16 130.848 180.472C132.024 180.784 133.116 180.94 134.124 180.94C135.372 180.94 136.272 180.748 136.824 180.364C137.376 179.98 137.652 179.464 137.652 178.816C137.652 178.432 137.544 178.084 137.328 177.772C137.112 177.46 136.692 177.136 136.068 176.8C135.444 176.44 134.496 175.996 133.224 175.468C131.976 174.964 130.932 174.46 130.092 173.956C129.276 173.452 128.652 172.852 128.22 172.156C127.812 171.436 127.608 170.536 127.608 169.456C127.608 167.704 128.304 166.384 129.696 165.496C131.088 164.584 132.924 164.128 135.204 164.128C136.404 164.128 137.532 164.248 138.588 164.488C139.668 164.704 140.748 165.064 141.828 165.568L140.388 168.916C139.788 168.652 139.188 168.424 138.588 168.232C138.012 168.016 137.424 167.848 136.824 167.728C136.248 167.608 135.66 167.548 135.06 167.548C134.076 167.548 133.332 167.704 132.828 168.016C132.324 168.304 132.072 168.712 132.072 169.24C132.072 169.648 132.192 170.008 132.432 170.32C132.696 170.608 133.14 170.908 133.764 171.22C134.412 171.508 135.324 171.892 136.5 172.372C137.676 172.828 138.672 173.308 139.488 173.812C140.328 174.292 140.976 174.892 141.432 175.612C141.888 176.332 142.116 177.244 142.116 178.348ZM155.12 180.724C155.696 180.724 156.248 180.676 156.776 180.58C157.304 180.46 157.796 180.328 158.252 180.184V183.568C157.772 183.784 157.148 183.964 156.38 184.108C155.612 184.276 154.808 184.36 153.968 184.36C152.864 184.36 151.856 184.18 150.944 183.82C150.056 183.436 149.336 182.788 148.784 181.876C148.256 180.964 147.992 179.692 147.992 178.06V167.908H145.364V165.928L148.244 164.344L149.684 160.204H152.528V164.488H158.072V167.908H152.528V178.024C152.528 178.936 152.768 179.62 153.248 180.076C153.728 180.508 154.352 180.724 155.12 180.724ZM173.489 164.128C173.777 164.128 174.113 164.14 174.497 164.164C174.881 164.188 175.205 164.236 175.469 164.308L175.073 168.52C174.857 168.472 174.569 168.436 174.209 168.412C173.873 168.364 173.573 168.34 173.309 168.34C172.589 168.34 171.893 168.46 171.221 168.7C170.573 168.916 169.985 169.252 169.457 169.708C168.953 170.14 168.545 170.704 168.233 171.4C167.945 172.096 167.801 172.924 167.801 173.884V184H163.265V164.488H166.757L167.405 167.872H167.621C168.005 167.176 168.485 166.552 169.061 166C169.637 165.424 170.297 164.968 171.041 164.632C171.809 164.296 172.625 164.128 173.489 164.128ZM187.238 164.128C189.758 164.128 191.666 164.68 192.962 165.784C194.282 166.864 194.942 168.568 194.942 170.896V184H191.738L190.838 181.3H190.694C190.142 181.996 189.566 182.584 188.966 183.064C188.39 183.52 187.718 183.844 186.95 184.036C186.206 184.252 185.294 184.36 184.214 184.36C183.062 184.36 182.018 184.144 181.082 183.712C180.17 183.28 179.45 182.62 178.922 181.732C178.394 180.82 178.13 179.68 178.13 178.312C178.13 176.296 178.862 174.784 180.326 173.776C181.814 172.744 184.058 172.18 187.058 172.084L190.442 171.976V171.004C190.442 169.756 190.142 168.868 189.542 168.34C188.942 167.812 188.102 167.548 187.022 167.548C186.038 167.548 185.09 167.692 184.178 167.98C183.266 168.268 182.378 168.604 181.514 168.988L180.074 165.82C181.034 165.316 182.126 164.908 183.35 164.596C184.598 164.284 185.894 164.128 187.238 164.128ZM188.066 174.856C186.074 174.928 184.694 175.276 183.926 175.9C183.158 176.5 182.774 177.316 182.774 178.348C182.774 179.26 183.05 179.92 183.602 180.328C184.154 180.736 184.862 180.94 185.726 180.94C187.046 180.94 188.162 180.568 189.074 179.824C189.986 179.056 190.442 177.928 190.442 176.44V174.784L188.066 174.856ZM219.986 164.128C221.738 164.128 223.238 164.488 224.486 165.208C225.758 165.904 226.742 166.912 227.438 168.232C228.134 169.528 228.482 171.112 228.482 172.984V175.288H215.594C215.642 177.064 216.134 178.444 217.07 179.428C218.006 180.388 219.302 180.868 220.958 180.868C222.23 180.868 223.358 180.748 224.342 180.508C225.35 180.244 226.382 179.872 227.438 179.392V183.028C226.478 183.484 225.482 183.82 224.45 184.036C223.418 184.252 222.182 184.36 220.742 184.36C218.846 184.36 217.154 184 215.666 183.28C214.202 182.536 213.05 181.42 212.21 179.932C211.394 178.444 210.986 176.596 210.986 174.388C210.986 172.156 211.358 170.284 212.102 168.772C212.87 167.236 213.926 166.084 215.27 165.316C216.614 164.524 218.186 164.128 219.986 164.128ZM219.986 167.476C218.786 167.476 217.802 167.872 217.034 168.664C216.29 169.432 215.846 170.584 215.702 172.12H224.09C224.09 171.208 223.934 170.404 223.622 169.708C223.334 169.012 222.89 168.472 222.29 168.088C221.69 167.68 220.922 167.476 219.986 167.476ZM238.672 184H234.136V156.64H238.672V184ZM262.428 184.36C260.172 184.36 258.336 183.52 256.92 181.84C255.528 180.136 254.832 177.616 254.832 174.28C254.832 170.944 255.54 168.424 256.956 166.72C258.372 164.992 260.232 164.128 262.536 164.128C263.496 164.128 264.336 164.26 265.056 164.524C265.8 164.764 266.436 165.1 266.964 165.532C267.492 165.964 267.936 166.444 268.296 166.972H268.512C268.44 166.636 268.368 166.12 268.296 165.424C268.224 164.728 268.188 164.08 268.188 163.48V156.64H272.724V184H269.196L268.368 181.444H268.188C267.828 181.972 267.384 182.464 266.856 182.92C266.328 183.352 265.704 183.7 264.984 183.964C264.264 184.228 263.412 184.36 262.428 184.36ZM263.796 180.688C265.476 180.688 266.664 180.208 267.36 179.248C268.056 178.288 268.404 176.836 268.404 174.892V174.316C268.404 172.204 268.068 170.596 267.396 169.492C266.748 168.388 265.524 167.836 263.724 167.836C262.356 167.836 261.3 168.412 260.556 169.564C259.812 170.692 259.44 172.288 259.44 174.352C259.44 176.416 259.812 177.988 260.556 179.068C261.3 180.148 262.38 180.688 263.796 180.688ZM287.447 164.128C289.199 164.128 290.699 164.488 291.947 165.208C293.219 165.904 294.203 166.912 294.899 168.232C295.595 169.528 295.943 171.112 295.943 172.984V175.288H283.055C283.103 177.064 283.595 178.444 284.531 179.428C285.467 180.388 286.763 180.868 288.419 180.868C289.691 180.868 290.819 180.748 291.803 180.508C292.811 180.244 293.843 179.872 294.899 179.392V183.028C293.939 183.484 292.943 183.82 291.911 184.036C290.879 184.252 289.643 184.36 288.203 184.36C286.307 184.36 284.615 184 283.127 183.28C281.663 182.536 280.511 181.42 279.671 179.932C278.855 178.444 278.447 176.596 278.447 174.388C278.447 172.156 278.819 170.284 279.563 168.772C280.331 167.236 281.387 166.084 282.731 165.316C284.075 164.524 285.647 164.128 287.447 164.128ZM287.447 167.476C286.247 167.476 285.263 167.872 284.495 168.664C283.751 169.432 283.307 170.584 283.163 172.12H291.551C291.551 171.208 291.395 170.404 291.083 169.708C290.795 169.012 290.351 168.472 289.751 168.088C289.151 167.68 288.383 167.476 287.447 167.476ZM308.041 184.36C305.785 184.36 303.949 183.52 302.533 181.84C301.141 180.136 300.445 177.616 300.445 174.28C300.445 170.944 301.153 168.424 302.569 166.72C303.985 164.992 305.845 164.128 308.149 164.128C309.109 164.128 309.949 164.26 310.669 164.524C311.413 164.764 312.049 165.1 312.577 165.532C313.105 165.964 313.549 166.444 313.909 166.972H314.125C314.053 166.636 313.981 166.12 313.909 165.424C313.837 164.728 313.801 164.08 313.801 163.48V156.64H318.337V184H314.809L313.981 181.444H313.801C313.441 181.972 312.997 182.464 312.469 182.92C311.941 183.352 311.317 183.7 310.597 183.964C309.877 184.228 309.025 184.36 308.041 184.36ZM309.409 180.688C311.089 180.688 312.277 180.208 312.973 179.248C313.669 178.288 314.017 176.836 314.017 174.892V174.316C314.017 172.204 313.681 170.596 313.009 169.492C312.361 168.388 311.137 167.836 309.337 167.836C307.969 167.836 306.913 168.412 306.169 169.564C305.425 170.692 305.053 172.288 305.053 174.352C305.053 176.416 305.425 177.988 306.169 179.068C306.913 180.148 307.993 180.688 309.409 180.688ZM342.636 174.208C342.636 175.84 342.42 177.28 341.988 178.528C341.556 179.776 340.932 180.844 340.116 181.732C339.324 182.596 338.34 183.256 337.164 183.712C336.012 184.144 334.728 184.36 333.312 184.36C331.968 184.36 330.732 184.144 329.604 183.712C328.476 183.256 327.492 182.596 326.652 181.732C325.836 180.844 325.2 179.776 324.744 178.528C324.288 177.28 324.06 175.84 324.06 174.208C324.06 172.048 324.432 170.224 325.176 168.736C325.92 167.224 326.988 166.084 328.38 165.316C329.796 164.524 331.464 164.128 333.384 164.128C335.208 164.128 336.804 164.524 338.172 165.316C339.564 166.084 340.656 167.224 341.448 168.736C342.24 170.224 342.636 172.048 342.636 174.208ZM328.704 174.208C328.704 175.576 328.86 176.752 329.172 177.736C329.508 178.696 330.012 179.428 330.684 179.932C331.38 180.436 332.268 180.688 333.348 180.688C334.452 180.688 335.34 180.436 336.012 179.932C336.708 179.428 337.212 178.696 337.524 177.736C337.836 176.752 337.992 175.576 337.992 174.208C337.992 172.816 337.824 171.652 337.488 170.716C337.176 169.756 336.672 169.036 335.976 168.556C335.304 168.052 334.428 167.8 333.348 167.8C331.716 167.8 330.528 168.352 329.784 169.456C329.064 170.56 328.704 172.144 328.704 174.208ZM363.373 163.156C363.373 163.924 363.337 164.68 363.265 165.424C363.217 166.144 363.169 166.684 363.121 167.044H363.409C363.817 166.372 364.321 165.832 364.921 165.424C365.521 164.992 366.181 164.668 366.901 164.452C367.645 164.236 368.413 164.128 369.205 164.128C370.669 164.128 371.929 164.38 372.985 164.884C374.041 165.388 374.845 166.168 375.397 167.224C375.973 168.256 376.261 169.612 376.261 171.292V184H371.725V172.192C371.725 170.704 371.437 169.6 370.861 168.88C370.285 168.16 369.373 167.8 368.125 167.8C366.925 167.8 365.977 168.064 365.281 168.592C364.585 169.096 364.093 169.852 363.805 170.86C363.517 171.844 363.373 173.056 363.373 174.496V184H358.837V156.64H363.373V163.156ZM390.79 164.128C393.31 164.128 395.218 164.68 396.514 165.784C397.834 166.864 398.494 168.568 398.494 170.896V184H395.29L394.39 181.3H394.246C393.694 181.996 393.118 182.584 392.518 183.064C391.942 183.52 391.27 183.844 390.502 184.036C389.758 184.252 388.846 184.36 387.766 184.36C386.614 184.36 385.57 184.144 384.634 183.712C383.722 183.28 383.002 182.62 382.474 181.732C381.946 180.82 381.682 179.68 381.682 178.312C381.682 176.296 382.414 174.784 383.878 173.776C385.366 172.744 387.61 172.18 390.61 172.084L393.994 171.976V171.004C393.994 169.756 393.694 168.868 393.094 168.34C392.494 167.812 391.654 167.548 390.574 167.548C389.59 167.548 388.642 167.692 387.73 167.98C386.818 168.268 385.93 168.604 385.066 168.988L383.626 165.82C384.586 165.316 385.678 164.908 386.902 164.596C388.15 164.284 389.446 164.128 390.79 164.128ZM391.618 174.856C389.626 174.928 388.246 175.276 387.478 175.9C386.71 176.5 386.326 177.316 386.326 178.348C386.326 179.26 386.602 179.92 387.154 180.328C387.706 180.736 388.414 180.94 389.278 180.94C390.598 180.94 391.714 180.568 392.626 179.824C393.538 179.056 393.994 177.928 393.994 176.44V174.784L391.618 174.856ZM413.142 184.36C411.294 184.36 409.686 184.012 408.318 183.316C406.974 182.596 405.93 181.504 405.186 180.04C404.466 178.552 404.106 176.656 404.106 174.352C404.106 171.952 404.502 170.008 405.294 168.52C406.11 167.008 407.226 165.904 408.642 165.208C410.058 164.488 411.678 164.128 413.502 164.128C414.726 164.128 415.818 164.248 416.778 164.488C417.738 164.728 418.554 165.016 419.226 165.352L417.894 168.916C417.15 168.628 416.406 168.388 415.662 168.196C414.918 167.98 414.198 167.872 413.502 167.872C412.422 167.872 411.522 168.112 410.802 168.592C410.106 169.072 409.59 169.792 409.254 170.752C408.918 171.688 408.75 172.876 408.75 174.316C408.75 175.708 408.918 176.872 409.254 177.808C409.614 178.744 410.142 179.452 410.838 179.932C411.534 180.388 412.398 180.616 413.43 180.616C414.534 180.616 415.506 180.484 416.346 180.22C417.186 179.956 417.978 179.596 418.722 179.14V183.064C417.978 183.52 417.174 183.844 416.31 184.036C415.47 184.252 414.414 184.36 413.142 184.36ZM428.91 164.488V184H424.374V164.488H428.91ZM426.642 156.964C427.314 156.964 427.902 157.144 428.406 157.504C428.91 157.84 429.162 158.452 429.162 159.34C429.162 160.204 428.91 160.828 428.406 161.212C427.902 161.572 427.314 161.752 426.642 161.752C425.946 161.752 425.346 161.572 424.842 161.212C424.362 160.828 424.122 160.204 424.122 159.34C424.122 158.452 424.362 157.84 424.842 157.504C425.346 157.144 425.946 156.964 426.642 156.964ZM443.565 164.128C446.085 164.128 447.993 164.68 449.289 165.784C450.609 166.864 451.269 168.568 451.269 170.896V184H448.065L447.165 181.3H447.021C446.469 181.996 445.893 182.584 445.293 183.064C444.717 183.52 444.045 183.844 443.277 184.036C442.533 184.252 441.621 184.36 440.541 184.36C439.389 184.36 438.345 184.144 437.409 183.712C436.497 183.28 435.777 182.62 435.249 181.732C434.721 180.82 434.457 179.68 434.457 178.312C434.457 176.296 435.189 174.784 436.653 173.776C438.141 172.744 440.385 172.18 443.385 172.084L446.769 171.976V171.004C446.769 169.756 446.469 168.868 445.869 168.34C445.269 167.812 444.429 167.548 443.349 167.548C442.365 167.548 441.417 167.692 440.505 167.98C439.593 168.268 438.705 168.604 437.841 168.988L436.401 165.82C437.361 165.316 438.453 164.908 439.677 164.596C440.925 164.284 442.221 164.128 443.565 164.128ZM444.393 174.856C442.401 174.928 441.021 175.276 440.253 175.9C439.485 176.5 439.101 177.316 439.101 178.348C439.101 179.26 439.377 179.92 439.929 180.328C440.481 180.736 441.189 180.94 442.053 180.94C443.373 180.94 444.489 180.568 445.401 179.824C446.313 179.056 446.769 177.928 446.769 176.44V174.784L444.393 174.856ZM473.001 184H468.465V156.64H473.001V184ZM487.657 164.128C490.177 164.128 492.085 164.68 493.381 165.784C494.701 166.864 495.361 168.568 495.361 170.896V184H492.157L491.257 181.3H491.113C490.561 181.996 489.985 182.584 489.385 183.064C488.809 183.52 488.137 183.844 487.369 184.036C486.625 184.252 485.713 184.36 484.633 184.36C483.481 184.36 482.437 184.144 481.501 183.712C480.589 183.28 479.869 182.62 479.341 181.732C478.813 180.82 478.549 179.68 478.549 178.312C478.549 176.296 479.281 174.784 480.745 173.776C482.233 172.744 484.477 172.18 487.477 172.084L490.861 171.976V171.004C490.861 169.756 490.561 168.868 489.961 168.34C489.361 167.812 488.521 167.548 487.441 167.548C486.457 167.548 485.509 167.692 484.597 167.98C483.685 168.268 482.797 168.604 481.933 168.988L480.493 165.82C481.453 165.316 482.545 164.908 483.769 164.596C485.017 164.284 486.313 164.128 487.657 164.128ZM488.485 174.856C486.493 174.928 485.113 175.276 484.345 175.9C483.577 176.5 483.193 177.316 483.193 178.348C483.193 179.26 483.469 179.92 484.021 180.328C484.573 180.736 485.281 180.94 486.145 180.94C487.465 180.94 488.581 180.568 489.493 179.824C490.405 179.056 490.861 177.928 490.861 176.44V174.784L488.485 174.856ZM522.817 164.128C525.097 164.128 526.933 164.98 528.325 166.684C529.717 168.364 530.413 170.872 530.413 174.208C530.413 176.416 530.089 178.276 529.441 179.788C528.793 181.3 527.893 182.44 526.741 183.208C525.589 183.976 524.245 184.36 522.709 184.36C521.773 184.36 520.945 184.24 520.225 184C519.505 183.736 518.893 183.412 518.389 183.028C517.885 182.62 517.453 182.188 517.093 181.732H516.805C516.901 182.164 516.973 182.656 517.021 183.208C517.069 183.736 517.093 184.24 517.093 184.72V192.64H512.557V164.488H516.229L516.877 167.08H517.093C517.453 166.528 517.885 166.036 518.389 165.604C518.917 165.148 519.541 164.788 520.261 164.524C521.005 164.26 521.857 164.128 522.817 164.128ZM521.521 167.8C520.465 167.8 519.613 168.016 518.965 168.448C518.317 168.856 517.849 169.492 517.561 170.356C517.273 171.22 517.117 172.3 517.093 173.596V174.172C517.093 175.564 517.225 176.74 517.489 177.7C517.777 178.66 518.245 179.392 518.893 179.896C519.565 180.4 520.465 180.652 521.593 180.652C522.553 180.652 523.333 180.388 523.933 179.86C524.557 179.332 525.013 178.588 525.301 177.628C525.613 176.644 525.769 175.48 525.769 174.136C525.769 172.12 525.421 170.56 524.725 169.456C524.053 168.352 522.985 167.8 521.521 167.8ZM543.948 164.128C546.468 164.128 548.376 164.68 549.672 165.784C550.992 166.864 551.652 168.568 551.652 170.896V184H548.448L547.548 181.3H547.404C546.852 181.996 546.276 182.584 545.676 183.064C545.1 183.52 544.428 183.844 543.66 184.036C542.916 184.252 542.004 184.36 540.924 184.36C539.772 184.36 538.728 184.144 537.792 183.712C536.88 183.28 536.16 182.62 535.632 181.732C535.104 180.82 534.84 179.68 534.84 178.312C534.84 176.296 535.572 174.784 537.036 173.776C538.524 172.744 540.768 172.18 543.768 172.084L547.152 171.976V171.004C547.152 169.756 546.852 168.868 546.252 168.34C545.652 167.812 544.812 167.548 543.732 167.548C542.748 167.548 541.8 167.692 540.888 167.98C539.976 168.268 539.088 168.604 538.224 168.988L536.784 165.82C537.744 165.316 538.836 164.908 540.06 164.596C541.308 164.284 542.604 164.128 543.948 164.128ZM544.776 174.856C542.784 174.928 541.404 175.276 540.636 175.9C539.868 176.5 539.484 177.316 539.484 178.348C539.484 179.26 539.76 179.92 540.312 180.328C540.864 180.736 541.572 180.94 542.436 180.94C543.756 180.94 544.872 180.568 545.784 179.824C546.696 179.056 547.152 177.928 547.152 176.44V174.784L544.776 174.856ZM568.64 164.128C568.928 164.128 569.264 164.14 569.648 164.164C570.032 164.188 570.356 164.236 570.62 164.308L570.224 168.52C570.008 168.472 569.72 168.436 569.36 168.412C569.024 168.364 568.724 168.34 568.46 168.34C567.74 168.34 567.044 168.46 566.372 168.7C565.724 168.916 565.136 169.252 564.608 169.708C564.104 170.14 563.696 170.704 563.384 171.4C563.096 172.096 562.952 172.924 562.952 173.884V184H558.416V164.488H561.908L562.556 167.872H562.772C563.156 167.176 563.636 166.552 564.212 166C564.788 165.424 565.448 164.968 566.192 164.632C566.96 164.296 567.776 164.128 568.64 164.128ZM582.876 180.724C583.452 180.724 584.004 180.676 584.532 180.58C585.06 180.46 585.552 180.328 586.008 180.184V183.568C585.528 183.784 584.904 183.964 584.136 184.108C583.368 184.276 582.564 184.36 581.724 184.36C580.62 184.36 579.612 184.18 578.7 183.82C577.812 183.436 577.092 182.788 576.54 181.876C576.012 180.964 575.748 179.692 575.748 178.06V167.908H573.12V165.928L576 164.344L577.44 160.204H580.284V164.488H585.828V167.908H580.284V178.024C580.284 178.936 580.524 179.62 581.004 180.076C581.484 180.508 582.108 180.724 582.876 180.724ZM598.869 164.128C600.621 164.128 602.121 164.488 603.369 165.208C604.641 165.904 605.625 166.912 606.321 168.232C607.017 169.528 607.365 171.112 607.365 172.984V175.288H594.477C594.525 177.064 595.017 178.444 595.953 179.428C596.889 180.388 598.185 180.868 599.841 180.868C601.113 180.868 602.241 180.748 603.225 180.508C604.233 180.244 605.265 179.872 606.321 179.392V183.028C605.361 183.484 604.365 183.82 603.333 184.036C602.301 184.252 601.065 184.36 599.625 184.36C597.729 184.36 596.037 184 594.549 183.28C593.085 182.536 591.933 181.42 591.093 179.932C590.277 178.444 589.869 176.596 589.869 174.388C589.869 172.156 590.241 170.284 590.985 168.772C591.753 167.236 592.809 166.084 594.153 165.316C595.497 164.524 597.069 164.128 598.869 164.128ZM598.869 167.476C597.669 167.476 596.685 167.872 595.917 168.664C595.173 169.432 594.729 170.584 594.585 172.12H602.973C602.973 171.208 602.817 170.404 602.505 169.708C602.217 169.012 601.773 168.472 601.173 168.088C600.573 167.68 599.805 167.476 598.869 167.476ZM636.735 178.348C636.735 179.644 636.423 180.748 635.799 181.66C635.175 182.548 634.251 183.22 633.027 183.676C631.827 184.132 630.351 184.36 628.599 184.36C627.231 184.36 626.055 184.264 625.071 184.072C624.087 183.88 623.151 183.58 622.263 183.172V179.32C623.223 179.776 624.291 180.16 625.467 180.472C626.643 180.784 627.735 180.94 628.743 180.94C629.991 180.94 630.891 180.748 631.443 180.364C631.995 179.98 632.271 179.464 632.271 178.816C632.271 178.432 632.163 178.084 631.947 177.772C631.731 177.46 631.311 177.136 630.687 176.8C630.063 176.44 629.115 175.996 627.843 175.468C626.595 174.964 625.551 174.46 624.711 173.956C623.895 173.452 623.271 172.852 622.839 172.156C622.431 171.436 622.227 170.536 622.227 169.456C622.227 167.704 622.923 166.384 624.315 165.496C625.707 164.584 627.543 164.128 629.823 164.128C631.023 164.128 632.151 164.248 633.207 164.488C634.287 164.704 635.367 165.064 636.447 165.568L635.007 168.916C634.407 168.652 633.807 168.424 633.207 168.232C632.631 168.016 632.043 167.848 631.443 167.728C630.867 167.608 630.279 167.548 629.679 167.548C628.695 167.548 627.951 167.704 627.447 168.016C626.943 168.304 626.691 168.712 626.691 169.24C626.691 169.648 626.811 170.008 627.051 170.32C627.315 170.608 627.759 170.908 628.383 171.22C629.031 171.508 629.943 171.892 631.119 172.372C632.295 172.828 633.291 173.308 634.107 173.812C634.947 174.292 635.595 174.892 636.051 175.612C636.507 176.332 636.735 177.244 636.735 178.348ZM659.495 164.488V184H655.931L655.319 181.48H655.103C654.695 182.152 654.167 182.704 653.519 183.136C652.871 183.544 652.163 183.844 651.395 184.036C650.627 184.252 649.835 184.36 649.019 184.36C647.579 184.36 646.331 184.108 645.275 183.604C644.219 183.1 643.415 182.332 642.863 181.3C642.311 180.244 642.035 178.888 642.035 177.232V164.488H646.571V176.332C646.571 177.772 646.859 178.864 647.435 179.608C648.011 180.328 648.923 180.688 650.171 180.688C651.395 180.688 652.355 180.436 653.051 179.932C653.747 179.404 654.239 178.648 654.527 177.664C654.815 176.68 654.959 175.468 654.959 174.028V164.488H659.495ZM676.617 164.128C678.897 164.128 680.733 164.98 682.125 166.684C683.517 168.364 684.213 170.872 684.213 174.208C684.213 176.416 683.889 178.276 683.241 179.788C682.593 181.3 681.693 182.44 680.541 183.208C679.389 183.976 678.045 184.36 676.509 184.36C675.573 184.36 674.745 184.24 674.025 184C673.305 183.736 672.693 183.412 672.189 183.028C671.685 182.62 671.253 182.188 670.893 181.732H670.605C670.701 182.164 670.773 182.656 670.821 183.208C670.869 183.736 670.893 184.24 670.893 184.72V192.64H666.357V164.488H670.029L670.677 167.08H670.893C671.253 166.528 671.685 166.036 672.189 165.604C672.717 165.148 673.341 164.788 674.061 164.524C674.805 164.26 675.657 164.128 676.617 164.128ZM675.321 167.8C674.265 167.8 673.413 168.016 672.765 168.448C672.117 168.856 671.649 169.492 671.361 170.356C671.073 171.22 670.917 172.3 670.893 173.596V174.172C670.893 175.564 671.025 176.74 671.289 177.7C671.577 178.66 672.045 179.392 672.693 179.896C673.365 180.4 674.265 180.652 675.393 180.652C676.353 180.652 677.133 180.388 677.733 179.86C678.357 179.332 678.813 178.588 679.101 177.628C679.413 176.644 679.569 175.48 679.569 174.136C679.569 172.12 679.221 170.56 678.525 169.456C677.853 168.352 676.785 167.8 675.321 167.8ZM697.82 164.128C699.572 164.128 701.072 164.488 702.32 165.208C703.592 165.904 704.576 166.912 705.272 168.232C705.968 169.528 706.316 171.112 706.316 172.984V175.288H693.428C693.476 177.064 693.968 178.444 694.904 179.428C695.84 180.388 697.136 180.868 698.792 180.868C700.064 180.868 701.192 180.748 702.176 180.508C703.184 180.244 704.216 179.872 705.272 179.392V183.028C704.312 183.484 703.316 183.82 702.284 184.036C701.252 184.252 700.016 184.36 698.576 184.36C696.68 184.36 694.988 184 693.5 183.28C692.036 182.536 690.884 181.42 690.044 179.932C689.228 178.444 688.82 176.596 688.82 174.388C688.82 172.156 689.192 170.284 689.936 168.772C690.704 167.236 691.76 166.084 693.104 165.316C694.448 164.524 696.02 164.128 697.82 164.128ZM697.82 167.476C696.62 167.476 695.636 167.872 694.868 168.664C694.124 169.432 693.68 170.584 693.536 172.12H701.924C701.924 171.208 701.768 170.404 701.456 169.708C701.168 169.012 700.724 168.472 700.124 168.088C699.524 167.68 698.756 167.476 697.82 167.476ZM722.194 164.128C722.482 164.128 722.818 164.14 723.202 164.164C723.586 164.188 723.91 164.236 724.174 164.308L723.778 168.52C723.562 168.472 723.274 168.436 722.914 168.412C722.578 168.364 722.278 168.34 722.014 168.34C721.294 168.34 720.598 168.46 719.926 168.7C719.278 168.916 718.69 169.252 718.162 169.708C717.658 170.14 717.25 170.704 716.938 171.4C716.65 172.096 716.506 172.924 716.506 173.884V184H711.97V164.488H715.462L716.11 167.872H716.326C716.71 167.176 717.19 166.552 717.766 166C718.342 165.424 719.002 164.968 719.746 164.632C720.514 164.296 721.33 164.128 722.194 164.128ZM733.406 164.488V184H728.87V164.488H733.406ZM731.138 156.964C731.81 156.964 732.398 157.144 732.902 157.504C733.406 157.84 733.658 158.452 733.658 159.34C733.658 160.204 733.406 160.828 732.902 161.212C732.398 161.572 731.81 161.752 731.138 161.752C730.442 161.752 729.842 161.572 729.338 161.212C728.858 160.828 728.618 160.204 728.618 159.34C728.618 158.452 728.858 157.84 729.338 157.504C729.842 157.144 730.442 156.964 731.138 156.964ZM757.71 174.208C757.71 175.84 757.494 177.28 757.062 178.528C756.63 179.776 756.006 180.844 755.19 181.732C754.398 182.596 753.414 183.256 752.238 183.712C751.086 184.144 749.802 184.36 748.386 184.36C747.042 184.36 745.806 184.144 744.678 183.712C743.55 183.256 742.566 182.596 741.726 181.732C740.91 180.844 740.274 179.776 739.818 178.528C739.362 177.28 739.134 175.84 739.134 174.208C739.134 172.048 739.506 170.224 740.25 168.736C740.994 167.224 742.062 166.084 743.454 165.316C744.87 164.524 746.538 164.128 748.458 164.128C750.282 164.128 751.878 164.524 753.246 165.316C754.638 166.084 755.73 167.224 756.522 168.736C757.314 170.224 757.71 172.048 757.71 174.208ZM743.778 174.208C743.778 175.576 743.934 176.752 744.246 177.736C744.582 178.696 745.086 179.428 745.758 179.932C746.454 180.436 747.342 180.688 748.422 180.688C749.526 180.688 750.414 180.436 751.086 179.932C751.782 179.428 752.286 178.696 752.598 177.736C752.91 176.752 753.066 175.576 753.066 174.208C753.066 172.816 752.898 171.652 752.562 170.716C752.25 169.756 751.746 169.036 751.05 168.556C750.378 168.052 749.502 167.8 748.422 167.8C746.79 167.8 745.602 168.352 744.858 169.456C744.138 170.56 743.778 172.144 743.778 174.208ZM773.703 164.128C773.991 164.128 774.327 164.14 774.711 164.164C775.095 164.188 775.419 164.236 775.683 164.308L775.287 168.52C775.071 168.472 774.783 168.436 774.423 168.412C774.087 168.364 773.787 168.34 773.523 168.34C772.803 168.34 772.107 168.46 771.435 168.7C770.787 168.916 770.199 169.252 769.671 169.708C769.167 170.14 768.759 170.704 768.447 171.4C768.159 172.096 768.015 172.924 768.015 173.884V184H763.479V164.488H766.971L767.619 167.872H767.835C768.219 167.176 768.699 166.552 769.275 166C769.851 165.424 770.511 164.968 771.255 164.632C772.023 164.296 772.839 164.128 773.703 164.128ZM69.6806 199.488H74.6126L78.5006 210.504C78.6686 210.984 78.8126 211.452 78.9326 211.908C79.0766 212.34 79.1966 212.784 79.2926 213.24C79.3886 213.696 79.4606 214.152 79.5086 214.608H79.6526C79.7486 214.008 79.8926 213.348 80.0846 212.628C80.3006 211.908 80.5166 211.2 80.7326 210.504L84.4766 199.488H89.3726L81.0566 221.592C80.5766 222.864 79.9646 223.956 79.2206 224.868C78.5006 225.78 77.6366 226.464 76.6286 226.92C75.6446 227.4 74.5286 227.64 73.2806 227.64C72.7046 227.64 72.1886 227.604 71.7326 227.532C71.3006 227.484 70.9166 227.424 70.5806 227.352V223.752C70.8446 223.8 71.1566 223.848 71.5166 223.896C71.9006 223.944 72.2966 223.968 72.7046 223.968C73.4486 223.968 74.0846 223.812 74.6126 223.5C75.1646 223.212 75.6206 222.804 75.9806 222.276C76.3646 221.748 76.6766 221.16 76.9166 220.512L77.4926 218.928L69.6806 199.488ZM114.056 199.128C116.336 199.128 118.172 199.98 119.564 201.684C120.956 203.364 121.652 205.872 121.652 209.208C121.652 211.416 121.328 213.276 120.68 214.788C120.032 216.3 119.132 217.44 117.98 218.208C116.828 218.976 115.484 219.36 113.948 219.36C113.012 219.36 112.184 219.24 111.464 219C110.744 218.736 110.132 218.412 109.628 218.028C109.124 217.62 108.692 217.188 108.332 216.732H108.044C108.14 217.164 108.212 217.656 108.26 218.208C108.308 218.736 108.332 219.24 108.332 219.72V227.64H103.796V199.488H107.468L108.116 202.08H108.332C108.692 201.528 109.124 201.036 109.628 200.604C110.156 200.148 110.78 199.788 111.5 199.524C112.244 199.26 113.096 199.128 114.056 199.128ZM112.76 202.8C111.704 202.8 110.852 203.016 110.204 203.448C109.556 203.856 109.088 204.492 108.8 205.356C108.512 206.22 108.356 207.3 108.332 208.596V209.172C108.332 210.564 108.464 211.74 108.728 212.7C109.016 213.66 109.484 214.392 110.132 214.896C110.804 215.4 111.704 215.652 112.832 215.652C113.792 215.652 114.572 215.388 115.172 214.86C115.796 214.332 116.252 213.588 116.54 212.628C116.852 211.644 117.008 210.48 117.008 209.136C117.008 207.12 116.66 205.56 115.964 204.456C115.292 203.352 114.224 202.8 112.76 202.8ZM144.835 209.208C144.835 210.84 144.619 212.28 144.187 213.528C143.755 214.776 143.131 215.844 142.315 216.732C141.523 217.596 140.539 218.256 139.363 218.712C138.211 219.144 136.927 219.36 135.511 219.36C134.167 219.36 132.931 219.144 131.803 218.712C130.675 218.256 129.691 217.596 128.851 216.732C128.035 215.844 127.399 214.776 126.943 213.528C126.487 212.28 126.259 210.84 126.259 209.208C126.259 207.048 126.631 205.224 127.375 203.736C128.119 202.224 129.187 201.084 130.579 200.316C131.995 199.524 133.663 199.128 135.583 199.128C137.407 199.128 139.003 199.524 140.371 200.316C141.763 201.084 142.855 202.224 143.647 203.736C144.439 205.224 144.835 207.048 144.835 209.208ZM130.903 209.208C130.903 210.576 131.059 211.752 131.371 212.736C131.707 213.696 132.211 214.428 132.883 214.932C133.579 215.436 134.467 215.688 135.547 215.688C136.651 215.688 137.539 215.436 138.211 214.932C138.907 214.428 139.411 213.696 139.723 212.736C140.035 211.752 140.191 210.576 140.191 209.208C140.191 207.816 140.023 206.652 139.687 205.716C139.375 204.756 138.871 204.036 138.175 203.556C137.503 203.052 136.627 202.8 135.547 202.8C133.915 202.8 132.727 203.352 131.983 204.456C131.263 205.56 130.903 207.144 130.903 209.208ZM157.048 219.36C154.792 219.36 152.956 218.52 151.54 216.84C150.148 215.136 149.452 212.616 149.452 209.28C149.452 205.944 150.16 203.424 151.576 201.72C152.992 199.992 154.852 199.128 157.156 199.128C158.116 199.128 158.956 199.26 159.676 199.524C160.42 199.764 161.056 200.1 161.584 200.532C162.112 200.964 162.556 201.444 162.916 201.972H163.132C163.06 201.636 162.988 201.12 162.916 200.424C162.844 199.728 162.808 199.08 162.808 198.48V191.64H167.344V219H163.816L162.988 216.444H162.808C162.448 216.972 162.004 217.464 161.476 217.92C160.948 218.352 160.324 218.7 159.604 218.964C158.884 219.228 158.032 219.36 157.048 219.36ZM158.416 215.688C160.096 215.688 161.284 215.208 161.98 214.248C162.676 213.288 163.024 211.836 163.024 209.892V209.316C163.024 207.204 162.688 205.596 162.016 204.492C161.368 203.388 160.144 202.836 158.344 202.836C156.976 202.836 155.92 203.412 155.176 204.564C154.432 205.692 154.06 207.288 154.06 209.352C154.06 211.416 154.432 212.988 155.176 214.068C155.92 215.148 157 215.688 158.416 215.688ZM184.443 199.128C184.731 199.128 185.067 199.14 185.451 199.164C185.835 199.188 186.159 199.236 186.423 199.308L186.027 203.52C185.811 203.472 185.523 203.436 185.163 203.412C184.827 203.364 184.527 203.34 184.263 203.34C183.543 203.34 182.847 203.46 182.175 203.7C181.527 203.916 180.939 204.252 180.411 204.708C179.907 205.14 179.499 205.704 179.187 206.4C178.899 207.096 178.755 207.924 178.755 208.884V219H174.219V199.488H177.711L178.359 202.872H178.575C178.959 202.176 179.439 201.552 180.015 201C180.591 200.424 181.251 199.968 181.995 199.632C182.763 199.296 183.579 199.128 184.443 199.128ZM198.192 199.128C200.712 199.128 202.62 199.68 203.916 200.784C205.236 201.864 205.896 203.568 205.896 205.896V219H202.692L201.792 216.3H201.648C201.096 216.996 200.52 217.584 199.92 218.064C199.344 218.52 198.672 218.844 197.904 219.036C197.16 219.252 196.248 219.36 195.168 219.36C194.016 219.36 192.972 219.144 192.036 218.712C191.124 218.28 190.404 217.62 189.876 216.732C189.348 215.82 189.084 214.68 189.084 213.312C189.084 211.296 189.816 209.784 191.28 208.776C192.768 207.744 195.012 207.18 198.012 207.084L201.396 206.976V206.004C201.396 204.756 201.096 203.868 200.496 203.34C199.896 202.812 199.056 202.548 197.976 202.548C196.992 202.548 196.044 202.692 195.132 202.98C194.22 203.268 193.332 203.604 192.468 203.988L191.028 200.82C191.988 200.316 193.08 199.908 194.304 199.596C195.552 199.284 196.848 199.128 198.192 199.128ZM199.02 209.856C197.028 209.928 195.648 210.276 194.88 210.9C194.112 211.5 193.728 212.316 193.728 213.348C193.728 214.26 194.004 214.92 194.556 215.328C195.108 215.736 195.816 215.94 196.68 215.94C198 215.94 199.116 215.568 200.028 214.824C200.94 214.056 201.396 212.928 201.396 211.44V209.784L199.02 209.856ZM204.816 191.784C204.528 192.12 204.132 192.528 203.628 193.008C203.148 193.488 202.608 193.992 202.008 194.52C201.432 195.048 200.856 195.552 200.28 196.032C199.728 196.488 199.236 196.872 198.804 197.184H195.78V196.716C196.164 196.26 196.596 195.732 197.076 195.132C197.556 194.508 198.024 193.872 198.48 193.224C198.96 192.552 199.344 191.952 199.632 191.424H204.816V191.784ZM225.944 213.348C225.944 214.644 225.632 215.748 225.008 216.66C224.384 217.548 223.46 218.22 222.236 218.676C221.036 219.132 219.56 219.36 217.808 219.36C216.44 219.36 215.264 219.264 214.28 219.072C213.296 218.88 212.36 218.58 211.472 218.172V214.32C212.432 214.776 213.5 215.16 214.676 215.472C215.852 215.784 216.944 215.94 217.952 215.94C219.2 215.94 220.1 215.748 220.652 215.364C221.204 214.98 221.48 214.464 221.48 213.816C221.48 213.432 221.372 213.084 221.156 212.772C220.94 212.46 220.52 212.136 219.896 211.8C219.272 211.44 218.324 210.996 217.052 210.468C215.804 209.964 214.76 209.46 213.92 208.956C213.104 208.452 212.48 207.852 212.048 207.156C211.64 206.436 211.436 205.536 211.436 204.456C211.436 202.704 212.132 201.384 213.524 200.496C214.916 199.584 216.752 199.128 219.032 199.128C220.232 199.128 221.36 199.248 222.416 199.488C223.496 199.704 224.576 200.064 225.656 200.568L224.216 203.916C223.616 203.652 223.016 203.424 222.416 203.232C221.84 203.016 221.252 202.848 220.652 202.728C220.076 202.608 219.488 202.548 218.888 202.548C217.904 202.548 217.16 202.704 216.656 203.016C216.152 203.304 215.9 203.712 215.9 204.24C215.9 204.648 216.02 205.008 216.26 205.32C216.524 205.608 216.968 205.908 217.592 206.22C218.24 206.508 219.152 206.892 220.328 207.372C221.504 207.828 222.5 208.308 223.316 208.812C224.156 209.292 224.804 209.892 225.26 210.612C225.716 211.332 225.944 212.244 225.944 213.348ZM249.596 199.128C252.116 199.128 254.024 199.68 255.32 200.784C256.64 201.864 257.3 203.568 257.3 205.896V219H254.096L253.196 216.3H253.052C252.5 216.996 251.924 217.584 251.324 218.064C250.748 218.52 250.076 218.844 249.308 219.036C248.564 219.252 247.652 219.36 246.572 219.36C245.42 219.36 244.376 219.144 243.44 218.712C242.528 218.28 241.808 217.62 241.28 216.732C240.752 215.82 240.488 214.68 240.488 213.312C240.488 211.296 241.22 209.784 242.684 208.776C244.172 207.744 246.416 207.18 249.416 207.084L252.8 206.976V206.004C252.8 204.756 252.5 203.868 251.9 203.34C251.3 202.812 250.46 202.548 249.38 202.548C248.396 202.548 247.448 202.692 246.536 202.98C245.624 203.268 244.736 203.604 243.872 203.988L242.432 200.82C243.392 200.316 244.484 199.908 245.708 199.596C246.956 199.284 248.252 199.128 249.596 199.128ZM250.424 209.856C248.432 209.928 247.052 210.276 246.284 210.9C245.516 211.5 245.132 212.316 245.132 213.348C245.132 214.26 245.408 214.92 245.96 215.328C246.512 215.736 247.22 215.94 248.084 215.94C249.404 215.94 250.52 215.568 251.432 214.824C252.344 214.056 252.8 212.928 252.8 211.44V209.784L250.424 209.856ZM271.949 219.36C270.101 219.36 268.493 219.012 267.125 218.316C265.781 217.596 264.737 216.504 263.993 215.04C263.273 213.552 262.913 211.656 262.913 209.352C262.913 206.952 263.309 205.008 264.101 203.52C264.917 202.008 266.033 200.904 267.449 200.208C268.865 199.488 270.485 199.128 272.309 199.128C273.533 199.128 274.625 199.248 275.585 199.488C276.545 199.728 277.361 200.016 278.033 200.352L276.701 203.916C275.957 203.628 275.213 203.388 274.469 203.196C273.725 202.98 273.005 202.872 272.309 202.872C271.229 202.872 270.329 203.112 269.609 203.592C268.913 204.072 268.397 204.792 268.061 205.752C267.725 206.688 267.557 207.876 267.557 209.316C267.557 210.708 267.725 211.872 268.061 212.808C268.421 213.744 268.949 214.452 269.645 214.932C270.341 215.388 271.205 215.616 272.237 215.616C273.341 215.616 274.313 215.484 275.153 215.22C275.993 214.956 276.785 214.596 277.529 214.14V218.064C276.785 218.52 275.981 218.844 275.117 219.036C274.277 219.252 273.221 219.36 271.949 219.36ZM291.064 219.36C289.216 219.36 287.608 219.012 286.24 218.316C284.896 217.596 283.852 216.504 283.108 215.04C282.388 213.552 282.028 211.656 282.028 209.352C282.028 206.952 282.424 205.008 283.216 203.52C284.032 202.008 285.148 200.904 286.564 200.208C287.98 199.488 289.6 199.128 291.424 199.128C292.648 199.128 293.74 199.248 294.7 199.488C295.66 199.728 296.476 200.016 297.148 200.352L295.816 203.916C295.072 203.628 294.328 203.388 293.584 203.196C292.84 202.98 292.12 202.872 291.424 202.872C290.344 202.872 289.444 203.112 288.724 203.592C288.028 204.072 287.512 204.792 287.176 205.752C286.84 206.688 286.672 207.876 286.672 209.316C286.672 210.708 286.84 211.872 287.176 212.808C287.536 213.744 288.064 214.452 288.76 214.932C289.456 215.388 290.32 215.616 291.352 215.616C292.456 215.616 293.428 215.484 294.268 215.22C295.108 214.956 295.9 214.596 296.644 214.14V218.064C295.9 218.52 295.096 218.844 294.232 219.036C293.392 219.252 292.336 219.36 291.064 219.36ZM310.143 199.128C311.895 199.128 313.395 199.488 314.643 200.208C315.915 200.904 316.899 201.912 317.595 203.232C318.291 204.528 318.639 206.112 318.639 207.984V210.288H305.751C305.799 212.064 306.291 213.444 307.227 214.428C308.163 215.388 309.459 215.868 311.115 215.868C312.387 215.868 313.515 215.748 314.499 215.508C315.507 215.244 316.539 214.872 317.595 214.392V218.028C316.635 218.484 315.639 218.82 314.607 219.036C313.575 219.252 312.339 219.36 310.899 219.36C309.003 219.36 307.311 219 305.823 218.28C304.359 217.536 303.207 216.42 302.367 214.932C301.551 213.444 301.143 211.596 301.143 209.388C301.143 207.156 301.515 205.284 302.259 203.772C303.027 202.236 304.083 201.084 305.427 200.316C306.771 199.524 308.343 199.128 310.143 199.128ZM310.143 202.476C308.943 202.476 307.959 202.872 307.191 203.664C306.447 204.432 306.003 205.584 305.859 207.12H314.247C314.247 206.208 314.091 205.404 313.779 204.708C313.491 204.012 313.047 203.472 312.447 203.088C311.847 202.68 311.079 202.476 310.143 202.476ZM330.737 219.36C328.481 219.36 326.645 218.52 325.229 216.84C323.837 215.136 323.141 212.616 323.141 209.28C323.141 205.944 323.849 203.424 325.265 201.72C326.681 199.992 328.541 199.128 330.845 199.128C331.805 199.128 332.645 199.26 333.365 199.524C334.109 199.764 334.745 200.1 335.273 200.532C335.801 200.964 336.245 201.444 336.605 201.972H336.821C336.749 201.636 336.677 201.12 336.605 200.424C336.533 199.728 336.497 199.08 336.497 198.48V191.64H341.033V219H337.505L336.677 216.444H336.497C336.137 216.972 335.693 217.464 335.165 217.92C334.637 218.352 334.013 218.7 333.293 218.964C332.573 219.228 331.721 219.36 330.737 219.36ZM332.105 215.688C333.785 215.688 334.973 215.208 335.669 214.248C336.365 213.288 336.713 211.836 336.713 209.892V209.316C336.713 207.204 336.377 205.596 335.705 204.492C335.057 203.388 333.833 202.836 332.033 202.836C330.665 202.836 329.609 203.412 328.865 204.564C328.121 205.692 327.749 207.288 327.749 209.352C327.749 211.416 328.121 212.988 328.865 214.068C329.609 215.148 330.689 215.688 332.105 215.688ZM355.756 199.128C357.508 199.128 359.008 199.488 360.256 200.208C361.528 200.904 362.512 201.912 363.208 203.232C363.904 204.528 364.252 206.112 364.252 207.984V210.288H351.364C351.412 212.064 351.904 213.444 352.84 214.428C353.776 215.388 355.072 215.868 356.728 215.868C358 215.868 359.128 215.748 360.112 215.508C361.12 215.244 362.152 214.872 363.208 214.392V218.028C362.248 218.484 361.252 218.82 360.22 219.036C359.188 219.252 357.952 219.36 356.512 219.36C354.616 219.36 352.924 219 351.436 218.28C349.972 217.536 348.82 216.42 347.98 214.932C347.164 213.444 346.756 211.596 346.756 209.388C346.756 207.156 347.128 205.284 347.872 203.772C348.64 202.236 349.696 201.084 351.04 200.316C352.384 199.524 353.956 199.128 355.756 199.128ZM355.756 202.476C354.556 202.476 353.572 202.872 352.804 203.664C352.06 204.432 351.616 205.584 351.472 207.12H359.86C359.86 206.208 359.704 205.404 359.392 204.708C359.104 204.012 358.66 203.472 358.06 203.088C357.46 202.68 356.692 202.476 355.756 202.476ZM380.13 199.128C380.418 199.128 380.754 199.14 381.138 199.164C381.522 199.188 381.846 199.236 382.11 199.308L381.714 203.52C381.498 203.472 381.21 203.436 380.85 203.412C380.514 203.364 380.214 203.34 379.95 203.34C379.23 203.34 378.534 203.46 377.862 203.7C377.214 203.916 376.626 204.252 376.098 204.708C375.594 205.14 375.186 205.704 374.874 206.4C374.586 207.096 374.442 207.924 374.442 208.884V219H369.906V199.488H373.398L374.046 202.872H374.262C374.646 202.176 375.126 201.552 375.702 201C376.278 200.424 376.938 199.968 377.682 199.632C378.45 199.296 379.266 199.128 380.13 199.128ZM405.014 199.128C407.534 199.128 409.442 199.68 410.738 200.784C412.058 201.864 412.718 203.568 412.718 205.896V219H409.514L408.614 216.3H408.47C407.918 216.996 407.342 217.584 406.742 218.064C406.166 218.52 405.494 218.844 404.726 219.036C403.982 219.252 403.07 219.36 401.99 219.36C400.838 219.36 399.794 219.144 398.858 218.712C397.946 218.28 397.226 217.62 396.698 216.732C396.17 215.82 395.906 214.68 395.906 213.312C395.906 211.296 396.638 209.784 398.102 208.776C399.59 207.744 401.834 207.18 404.834 207.084L408.218 206.976V206.004C408.218 204.756 407.918 203.868 407.318 203.34C406.718 202.812 405.878 202.548 404.798 202.548C403.814 202.548 402.866 202.692 401.954 202.98C401.042 203.268 400.154 203.604 399.29 203.988L397.85 200.82C398.81 200.316 399.902 199.908 401.126 199.596C402.374 199.284 403.67 199.128 405.014 199.128ZM405.842 209.856C403.85 209.928 402.47 210.276 401.702 210.9C400.934 211.5 400.55 212.316 400.55 213.348C400.55 214.26 400.826 214.92 401.378 215.328C401.93 215.736 402.638 215.94 403.502 215.94C404.822 215.94 405.938 215.568 406.85 214.824C407.762 214.056 408.218 212.928 408.218 211.44V209.784L405.842 209.856ZM440.173 199.128C442.453 199.128 444.289 199.98 445.681 201.684C447.073 203.364 447.769 205.872 447.769 209.208C447.769 211.416 447.445 213.276 446.797 214.788C446.149 216.3 445.249 217.44 444.097 218.208C442.945 218.976 441.601 219.36 440.065 219.36C439.129 219.36 438.301 219.24 437.581 219C436.861 218.736 436.249 218.412 435.745 218.028C435.241 217.62 434.809 217.188 434.449 216.732H434.161C434.257 217.164 434.329 217.656 434.377 218.208C434.425 218.736 434.449 219.24 434.449 219.72V227.64H429.913V199.488H433.585L434.233 202.08H434.449C434.809 201.528 435.241 201.036 435.745 200.604C436.273 200.148 436.897 199.788 437.617 199.524C438.361 199.26 439.213 199.128 440.173 199.128ZM438.877 202.8C437.821 202.8 436.969 203.016 436.321 203.448C435.673 203.856 435.205 204.492 434.917 205.356C434.629 206.22 434.473 207.3 434.449 208.596V209.172C434.449 210.564 434.581 211.74 434.845 212.7C435.133 213.66 435.601 214.392 436.249 214.896C436.921 215.4 437.821 215.652 438.949 215.652C439.909 215.652 440.689 215.388 441.289 214.86C441.913 214.332 442.369 213.588 442.657 212.628C442.969 211.644 443.125 210.48 443.125 209.136C443.125 207.12 442.777 205.56 442.081 204.456C441.409 203.352 440.341 202.8 438.877 202.8ZM461.305 199.128C463.825 199.128 465.733 199.68 467.029 200.784C468.349 201.864 469.009 203.568 469.009 205.896V219H465.805L464.905 216.3H464.761C464.209 216.996 463.633 217.584 463.033 218.064C462.457 218.52 461.785 218.844 461.017 219.036C460.273 219.252 459.361 219.36 458.281 219.36C457.129 219.36 456.085 219.144 455.149 218.712C454.237 218.28 453.517 217.62 452.989 216.732C452.461 215.82 452.197 214.68 452.197 213.312C452.197 211.296 452.929 209.784 454.393 208.776C455.881 207.744 458.125 207.18 461.125 207.084L464.509 206.976V206.004C464.509 204.756 464.209 203.868 463.609 203.34C463.009 202.812 462.169 202.548 461.089 202.548C460.105 202.548 459.157 202.692 458.245 202.98C457.333 203.268 456.445 203.604 455.581 203.988L454.141 200.82C455.101 200.316 456.193 199.908 457.417 199.596C458.665 199.284 459.961 199.128 461.305 199.128ZM462.133 209.856C460.141 209.928 458.761 210.276 457.993 210.9C457.225 211.5 456.841 212.316 456.841 213.348C456.841 214.26 457.117 214.92 457.669 215.328C458.221 215.736 458.929 215.94 459.793 215.94C461.113 215.94 462.229 215.568 463.141 214.824C464.053 214.056 464.509 212.928 464.509 211.44V209.784L462.133 209.856ZM486.213 199.128C488.397 199.128 490.101 199.692 491.325 200.82C492.573 201.948 493.197 203.772 493.197 206.292V219H488.661V207.192C488.661 205.728 488.373 204.636 487.797 203.916C487.221 203.172 486.309 202.8 485.061 202.8C483.237 202.8 481.989 203.376 481.317 204.528C480.645 205.656 480.309 207.3 480.309 209.46V219H475.773V199.488H479.265L479.913 202.044H480.165C480.597 201.372 481.125 200.82 481.749 200.388C482.373 199.956 483.069 199.644 483.837 199.452C484.605 199.236 485.397 199.128 486.213 199.128ZM507.51 215.724C508.086 215.724 508.638 215.676 509.166 215.58C509.694 215.46 510.186 215.328 510.642 215.184V218.568C510.162 218.784 509.538 218.964 508.77 219.108C508.002 219.276 507.198 219.36 506.358 219.36C505.254 219.36 504.246 219.18 503.334 218.82C502.446 218.436 501.726 217.788 501.174 216.876C500.646 215.964 500.382 214.692 500.382 213.06V202.908H497.754V200.928L500.634 199.344L502.074 195.204H504.918V199.488H510.462V202.908H504.918V213.024C504.918 213.936 505.158 214.62 505.638 215.076C506.118 215.508 506.742 215.724 507.51 215.724ZM523.431 199.128C525.951 199.128 527.859 199.68 529.155 200.784C530.475 201.864 531.135 203.568 531.135 205.896V219H527.931L527.031 216.3H526.887C526.335 216.996 525.759 217.584 525.159 218.064C524.583 218.52 523.911 218.844 523.143 219.036C522.399 219.252 521.487 219.36 520.407 219.36C519.255 219.36 518.211 219.144 517.275 218.712C516.363 218.28 515.643 217.62 515.115 216.732C514.587 215.82 514.323 214.68 514.323 213.312C514.323 211.296 515.055 209.784 516.519 208.776C518.007 207.744 520.251 207.18 523.251 207.084L526.635 206.976V206.004C526.635 204.756 526.335 203.868 525.735 203.34C525.135 202.812 524.295 202.548 523.215 202.548C522.231 202.548 521.283 202.692 520.371 202.98C519.459 203.268 518.571 203.604 517.707 203.988L516.267 200.82C517.227 200.316 518.319 199.908 519.543 199.596C520.791 199.284 522.087 199.128 523.431 199.128ZM524.259 209.856C522.267 209.928 520.887 210.276 520.119 210.9C519.351 211.5 518.967 212.316 518.967 213.348C518.967 214.26 519.243 214.92 519.795 215.328C520.347 215.736 521.055 215.94 521.919 215.94C523.239 215.94 524.355 215.568 525.267 214.824C526.179 214.056 526.635 212.928 526.635 211.44V209.784L524.259 209.856ZM542.435 219H537.899V191.64H542.435V219ZM553.851 219H549.315V191.64H553.851V219ZM568.507 199.128C571.027 199.128 572.935 199.68 574.231 200.784C575.551 201.864 576.211 203.568 576.211 205.896V219H573.007L572.107 216.3H571.963C571.411 216.996 570.835 217.584 570.235 218.064C569.659 218.52 568.987 218.844 568.219 219.036C567.475 219.252 566.563 219.36 565.483 219.36C564.331 219.36 563.287 219.144 562.351 218.712C561.439 218.28 560.719 217.62 560.191 216.732C559.663 215.82 559.399 214.68 559.399 213.312C559.399 211.296 560.131 209.784 561.595 208.776C563.083 207.744 565.327 207.18 568.327 207.084L571.711 206.976V206.004C571.711 204.756 571.411 203.868 570.811 203.34C570.211 202.812 569.371 202.548 568.291 202.548C567.307 202.548 566.359 202.692 565.447 202.98C564.535 203.268 563.647 203.604 562.783 203.988L561.343 200.82C562.303 200.316 563.395 199.908 564.619 199.596C565.867 199.284 567.163 199.128 568.507 199.128ZM569.335 209.856C567.343 209.928 565.963 210.276 565.195 210.9C564.427 211.5 564.043 212.316 564.043 213.348C564.043 214.26 564.319 214.92 564.871 215.328C565.423 215.736 566.131 215.94 566.995 215.94C568.315 215.94 569.431 215.568 570.343 214.824C571.255 214.056 571.711 212.928 571.711 211.44V209.784L569.335 209.856ZM601.291 219.36C599.443 219.36 597.835 219.012 596.467 218.316C595.123 217.596 594.079 216.504 593.335 215.04C592.615 213.552 592.255 211.656 592.255 209.352C592.255 206.952 592.651 205.008 593.443 203.52C594.259 202.008 595.375 200.904 596.791 200.208C598.207 199.488 599.827 199.128 601.651 199.128C602.875 199.128 603.967 199.248 604.927 199.488C605.887 199.728 606.703 200.016 607.375 200.352L606.043 203.916C605.299 203.628 604.555 203.388 603.811 203.196C603.067 202.98 602.347 202.872 601.651 202.872C600.571 202.872 599.671 203.112 598.951 203.592C598.255 204.072 597.739 204.792 597.403 205.752C597.067 206.688 596.899 207.876 596.899 209.316C596.899 210.708 597.067 211.872 597.403 212.808C597.763 213.744 598.291 214.452 598.987 214.932C599.683 215.388 600.547 215.616 601.579 215.616C602.683 215.616 603.655 215.484 604.495 215.22C605.335 214.956 606.127 214.596 606.871 214.14V218.064C606.127 218.52 605.323 218.844 604.459 219.036C603.619 219.252 602.563 219.36 601.291 219.36ZM629.946 209.208C629.946 210.84 629.73 212.28 629.298 213.528C628.866 214.776 628.242 215.844 627.426 216.732C626.634 217.596 625.65 218.256 624.474 218.712C623.322 219.144 622.038 219.36 620.622 219.36C619.278 219.36 618.042 219.144 616.914 218.712C615.786 218.256 614.802 217.596 613.962 216.732C613.146 215.844 612.51 214.776 612.054 213.528C611.598 212.28 611.37 210.84 611.37 209.208C611.37 207.048 611.742 205.224 612.486 203.736C613.23 202.224 614.298 201.084 615.69 200.316C617.106 199.524 618.774 199.128 620.694 199.128C622.518 199.128 624.114 199.524 625.482 200.316C626.874 201.084 627.966 202.224 628.758 203.736C629.55 205.224 629.946 207.048 629.946 209.208ZM616.014 209.208C616.014 210.576 616.17 211.752 616.482 212.736C616.818 213.696 617.322 214.428 617.994 214.932C618.69 215.436 619.578 215.688 620.658 215.688C621.762 215.688 622.65 215.436 623.322 214.932C624.018 214.428 624.522 213.696 624.834 212.736C625.146 211.752 625.302 210.576 625.302 209.208C625.302 207.816 625.134 206.652 624.798 205.716C624.486 204.756 623.982 204.036 623.286 203.556C622.614 203.052 621.738 202.8 620.658 202.8C619.026 202.8 617.838 203.352 617.094 204.456C616.374 205.56 616.014 207.144 616.014 209.208ZM658.071 199.128C660.279 199.128 661.935 199.692 663.039 200.82C664.167 201.948 664.731 203.772 664.731 206.292V219H660.195V207.156C660.195 205.716 659.931 204.636 659.403 203.916C658.875 203.172 658.035 202.8 656.883 202.8C655.299 202.8 654.171 203.316 653.499 204.348C652.827 205.38 652.491 206.88 652.491 208.848V219H647.955V207.156C647.955 206.196 647.835 205.392 647.595 204.744C647.355 204.096 646.983 203.616 646.479 203.304C645.999 202.968 645.375 202.8 644.607 202.8C643.527 202.8 642.663 203.064 642.015 203.592C641.367 204.096 640.911 204.84 640.647 205.824C640.383 206.808 640.251 208.02 640.251 209.46V219H635.715V199.488H639.207L639.855 202.044H640.107C640.515 201.372 641.007 200.82 641.583 200.388C642.183 199.956 642.843 199.644 643.563 199.452C644.307 199.236 645.051 199.128 645.795 199.128C647.259 199.128 648.495 199.38 649.503 199.884C650.511 200.364 651.267 201.12 651.771 202.152H652.131C652.731 201.096 653.571 200.328 654.651 199.848C655.755 199.368 656.895 199.128 658.071 199.128ZM681.754 199.128C684.034 199.128 685.87 199.98 687.262 201.684C688.654 203.364 689.35 205.872 689.35 209.208C689.35 211.416 689.026 213.276 688.378 214.788C687.73 216.3 686.83 217.44 685.678 218.208C684.526 218.976 683.182 219.36 681.646 219.36C680.71 219.36 679.882 219.24 679.162 219C678.442 218.736 677.83 218.412 677.326 218.028C676.822 217.62 676.39 217.188 676.03 216.732H675.742C675.838 217.164 675.91 217.656 675.958 218.208C676.006 218.736 676.03 219.24 676.03 219.72V227.64H671.494V199.488H675.166L675.814 202.08H676.03C676.39 201.528 676.822 201.036 677.326 200.604C677.854 200.148 678.478 199.788 679.198 199.524C679.942 199.26 680.794 199.128 681.754 199.128ZM680.458 202.8C679.402 202.8 678.55 203.016 677.902 203.448C677.254 203.856 676.786 204.492 676.498 205.356C676.21 206.22 676.054 207.3 676.03 208.596V209.172C676.03 210.564 676.162 211.74 676.426 212.7C676.714 213.66 677.182 214.392 677.83 214.896C678.502 215.4 679.402 215.652 680.53 215.652C681.49 215.652 682.27 215.388 682.87 214.86C683.494 214.332 683.95 213.588 684.238 212.628C684.55 211.644 684.706 210.48 684.706 209.136C684.706 207.12 684.358 205.56 683.662 204.456C682.99 203.352 681.922 202.8 680.458 202.8ZM699.646 219H695.11V191.64H699.646V219ZM714.374 199.128C716.126 199.128 717.626 199.488 718.874 200.208C720.146 200.904 721.13 201.912 721.826 203.232C722.522 204.528 722.87 206.112 722.87 207.984V210.288H709.982C710.03 212.064 710.522 213.444 711.458 214.428C712.394 215.388 713.69 215.868 715.346 215.868C716.618 215.868 717.746 215.748 718.73 215.508C719.738 215.244 720.77 214.872 721.826 214.392V218.028C720.866 218.484 719.87 218.82 718.838 219.036C717.806 219.252 716.57 219.36 715.13 219.36C713.234 219.36 711.542 219 710.054 218.28C708.59 217.536 707.438 216.42 706.598 214.932C705.782 213.444 705.374 211.596 705.374 209.388C705.374 207.156 705.746 205.284 706.49 203.772C707.258 202.236 708.314 201.084 709.658 200.316C711.002 199.524 712.574 199.128 714.374 199.128ZM714.374 202.476C713.174 202.476 712.19 202.872 711.422 203.664C710.678 204.432 710.234 205.584 710.09 207.12H718.478C718.478 206.208 718.322 205.404 718.01 204.708C717.722 204.012 717.278 203.472 716.678 203.088C716.078 202.68 715.31 202.476 714.374 202.476ZM736.084 215.724C736.66 215.724 737.212 215.676 737.74 215.58C738.268 215.46 738.76 215.328 739.216 215.184V218.568C738.736 218.784 738.112 218.964 737.344 219.108C736.576 219.276 735.772 219.36 734.932 219.36C733.828 219.36 732.82 219.18 731.908 218.82C731.02 218.436 730.3 217.788 729.748 216.876C729.22 215.964 728.956 214.692 728.956 213.06V202.908H726.328V200.928L729.208 199.344L730.648 195.204H733.492V199.488H739.036V202.908H733.492V213.024C733.492 213.936 733.732 214.62 734.212 215.076C734.692 215.508 735.316 215.724 736.084 215.724ZM752.005 199.128C754.525 199.128 756.433 199.68 757.729 200.784C759.049 201.864 759.709 203.568 759.709 205.896V219H756.505L755.605 216.3H755.461C754.909 216.996 754.333 217.584 753.733 218.064C753.157 218.52 752.485 218.844 751.717 219.036C750.973 219.252 750.061 219.36 748.981 219.36C747.829 219.36 746.785 219.144 745.849 218.712C744.937 218.28 744.217 217.62 743.689 216.732C743.161 215.82 742.897 214.68 742.897 213.312C742.897 211.296 743.629 209.784 745.093 208.776C746.581 207.744 748.825 207.18 751.825 207.084L755.209 206.976V206.004C755.209 204.756 754.909 203.868 754.309 203.34C753.709 202.812 752.869 202.548 751.789 202.548C750.805 202.548 749.857 202.692 748.945 202.98C748.033 203.268 747.145 203.604 746.281 203.988L744.841 200.82C745.801 200.316 746.893 199.908 748.117 199.596C749.365 199.284 750.661 199.128 752.005 199.128ZM752.833 209.856C750.841 209.928 749.461 210.276 748.693 210.9C747.925 211.5 747.541 212.316 747.541 213.348C747.541 214.26 747.817 214.92 748.369 215.328C748.921 215.736 749.629 215.94 750.493 215.94C751.813 215.94 752.929 215.568 753.841 214.824C754.753 214.056 755.209 212.928 755.209 211.44V209.784L752.833 209.856Z" fill="white"/>
<path d="M393.866 124.104C385.65 120.594 380.859 114.084 366.398 86.7865C359.822 74.3726 356.484 66.9284 356.484 64.6729C356.484 58.3005 365.67 53.1177 371.811 56.0253C373.214 56.6898 376.435 59.0747 378.968 61.325L383.573 65.4164V42.6125C383.573 23.1317 383.836 19.3978 385.377 16.9895C389.081 11.2035 398.006 10.1664 403.16 14.9231L406.327 17.8462V31.2763V44.7064L411.695 44.2304C416.569 43.7982 417.368 44.0357 420.376 46.8123C423.179 49.3986 424.27 49.7834 427.451 49.307C432.074 48.6147 437.085 50.4154 439.328 53.5743C440.781 55.6209 441.409 55.8071 443.903 54.9319C448.048 53.4777 452.441 54.6866 455.599 58.1502C458.324 61.1396 458.337 61.2442 458.336 80.8267C458.335 100.391 458.318 100.533 455.244 106.5C451.834 113.119 443.98 120.556 436.863 123.907C432.901 125.773 430.561 125.998 415.309 125.978C400.973 125.96 397.498 125.656 393.866 124.104ZM438.084 116.919C444.232 113.161 449.156 107.592 451.307 101.965C453.393 96.5097 453.648 63.0729 451.619 61.2C448.443 58.2687 442.485 60.5039 440.627 65.3239C440.224 66.369 439.112 67.0057 438.024 66.8149C436.59 66.5637 436.043 65.3158 435.794 61.7278C435.535 58.0106 434.897 56.6312 432.867 55.4039C429.282 53.2362 425.963 54.4645 424.062 58.6618C421.655 63.9785 418.935 62.8259 418.21 56.1826C417.586 50.4574 416.068 48.8275 411.745 49.2409C409.883 49.419 408.528 50.5189 407.411 52.7592C406.263 55.06 405.148 55.9421 403.618 55.7592C401.563 55.5134 401.423 54.5553 400.909 37.2114C400.332 17.7312 400.124 17.05 394.741 17.0153C389.438 16.9812 388.991 19.3742 388.991 47.7539C388.991 70.5866 388.769 74.1413 387.312 74.6572C386.19 75.0547 382.822 72.726 377.143 67.6258C372.473 63.4316 368.217 60 367.685 60C365.822 60 361.902 63.1281 361.902 64.6153C361.902 66.7463 381.993 104.467 386.045 109.944C387.899 112.45 390.835 115.738 392.568 117.25L395.721 120H414.382H433.044L438.084 116.919ZM366.996 31.3679C366.578 30.9822 366.236 25.9382 366.236 20.159V9.65137L363.583 11.9522C360.891 14.2862 357.556 14.1913 357.581 11.7814C357.593 10.6137 367.967 0 369.097 0C370.674 0 380.322 9.59875 380.322 11.1682C380.322 14.1057 377.272 14.5227 374.346 11.9853L371.73 9.71763L371.421 20.597C371.169 29.4744 370.803 31.5308 369.434 31.7727C368.511 31.9357 367.414 31.7536 366.996 31.3679Z" fill="white"/>
</svg>
