<svg xmlns="http://www.w3.org/2000/svg" viewBox="0 0 500 500" width="500" height="500" preserveAspectRatio="xMidYMid meet" style="width: 100%; height: 100%; transform: translate3d(0px, 0px, 0px);"><defs><clipPath id="__lottie_element_3"><rect width="500" height="500" x="0" y="0"></rect></clipPath></defs><g clip-path="url(#__lottie_element_3)"><g style="display: block;" transform="matrix(0.1131562814116478,0.9935771822929382,-0.9935771822929382,0.1131562814116478,405.3473815917969,62.58229064941406)" opacity="1"><g opacity="1" transform="matrix(1,0,0,1,182.34100341796875,103.44000244140625)"><path fill="rgb(255,255,255)" fill-opacity="1" d=" M169.9530029296875,-98.8010025024414 C169.93499755859375,-98.8010025024414 169.91700744628906,-98.81900024414062 169.8990020751953,-98.83100128173828 C168.7429962158203,-99.58000183105469 167.52999877929688,-100.23799896240234 166.27200317382812,-100.79900360107422 C165.9709930419922,-100.94000244140625 165.6719970703125,-101.0780029296875 165.3470001220703,-101.20700073242188 C165.0240020751953,-101.33599853515625 164.80799865722656,-101.46800231933594 164.5229949951172,-101.56999969482422 C164.2949981689453,-101.61900329589844 164.06199645996094,-101.65299987792969 163.8300018310547,-101.6719970703125 C161.10699462890625,-102.64299774169922 158.24200439453125,-103.15699768066406 155.3509979248047,-103.19000244140625 C155.3509979248047,-103.19000244140625 -155.35800170898438,-103.19000244140625 -155.35800170898438,-103.19000244140625 C-170.1179962158203,-103.16600036621094 -182.0760040283203,-91.2020034790039 -182.09100341796875,-76.44100189208984 C-182.09100341796875,-76.44100189208984 -182.09100341796875,76.4530029296875 -182.09100341796875,76.4530029296875 C-182.07000732421875,91.20999908447266 -170.11199951171875,103.16799926757812 -155.35499572753906,103.19000244140625 C-155.35499572753906,103.19000244140625 155.3489990234375,103.19000244140625 155.3489990234375,103.19000244140625 C170.10899353027344,103.1729965209961 182.0709991455078,91.21299743652344 182.09100341796875,76.4530029296875 C182.09100341796875,76.4530029296875 182.09100341796875,-79.48100280761719 182.09100341796875,-79.48100280761719 C182.08399963378906,-80.36900329589844 181.87899780273438,-81.24400329589844 181.49099731445312,-82.04299926757812 C180.73800659179688,-85.52999877929688 179.28900146484375,-88.8280029296875 177.2310028076172,-91.74199676513672 C177.2310028076172,-91.74199676513672 176.26800537109375,-94.17500305175781 169.9530029296875,-98.8010025024414z M-127.53299713134766,91.04199981689453 M-127.53299713134766,-91.05799865722656 C-127.53299713134766,-91.05799865722656 97.11599731445312,-91.05799865722656 97.11599731445312,-91.05799865722656 C97.11599731445312,-91.05799865722656 97.11599731445312,91.04199981689453 97.11599731445312,91.04199981689453 C97.11599731445312,91.04199981689453 -127.53299713134766,91.04199981689453 -127.53299713134766,91.04199981689453 C-127.53299713134766,91.04199981689453 -127.53299713134766,-91.05799865722656 -127.53299713134766,-91.05799865722656z M-169.9530029296875,76.44200134277344 C-169.9530029296875,76.44200134277344 -169.9530029296875,-76.44100189208984 -169.9530029296875,-76.44100189208984 C-169.947998046875,-84.50299835205078 -163.41600036621094,-91.03700256347656 -155.35499572753906,-91.0459976196289 C-155.35499572753906,-91.0459976196289 -139.6739959716797,-91.0459976196289 -139.6739959716797,-91.0459976196289 C-139.6739959716797,-91.0459976196289 -139.6739959716797,91.05500030517578 -139.6739959716797,91.05500030517578 C-139.6739959716797,91.05500030517578 -155.35499572753906,91.05500030517578 -155.35499572753906,91.05500030517578 C-163.41900634765625,91.04399871826172 -169.9510040283203,84.50499725341797 -169.9530029296875,76.44200134277344z M169.94700622558594,-76.4540023803711 C169.94700622558594,-76.4540023803711 169.94700622558594,76.44200134277344 169.94700622558594,76.44200134277344 C169.93699645996094,84.4990005493164 163.40699768066406,91.02899932861328 155.34800720214844,91.03900146484375 C155.34800720214844,91.03900146484375 109.24800109863281,91.03900146484375 109.24800109863281,91.03900146484375 C109.24800109863281,91.03900146484375 109.24800109863281,-91.06099700927734 109.24800109863281,-91.06099700927734 C109.24800109863281,-91.06099700927734 155.34300231933594,-91.06099700927734 155.34300231933594,-91.06099700927734 C163.4040069580078,-91.03500366210938 169.93099975585938,-84.50299835205078 169.9530029296875,-76.44100189208984 C169.9530029296875,-76.44100189208984 169.94700622558594,-76.4540023803711 169.94700622558594,-76.4540023803711z"></path></g><g opacity="1" transform="matrix(1,0,0,1,321.9429931640625,103.43499755859375)"><path fill="rgb(255,255,255)" fill-opacity="1" d=" M-24.280000686645508,0 C-24.280000686645508,13.409000396728516 -13.409000396728516,24.27899932861328 0,24.27899932861328 C13.409000396728516,24.27899932861328 24.280000686645508,13.409000396728516 24.280000686645508,0 C24.280000686645508,-13.409000396728516 13.409000396728516,-24.27899932861328 0,-24.27899932861328 C-13.404000282287598,-24.26799964904785 -24.26799964904785,-13.404000282287598 -24.280000686645508,0z M12.137999534606934,0 C12.140000343322754,6.702000141143799 6.708000183105469,12.13700008392334 0.006000000052154064,12.137999534606934 C0.006000000052154064,12.137999534606934 0,12.137999534606934 0,12.137999534606934 C-6.702000141143799,12.140000343322754 -12.13599967956543,6.708000183105469 -12.137999534606934,0.006000000052154064 C-12.137999534606934,0.006000000052154064 -12.137999534606934,0 -12.137999534606934,0 C-12.138999938964844,-6.702000141143799 -6.708000183105469,-12.13700008392334 -0.007000000216066837,-12.137999534606934 C-0.007000000216066837,-12.137999534606934 0,-12.137999534606934 0,-12.137999534606934 C6.701000213623047,-12.131999969482422 12.133000373840332,-6.701000213623047 12.140999794006348,0 C12.140999794006348,0 12.137999534606934,0 12.137999534606934,0z"></path></g><g opacity="1" transform="matrix(1,0,0,1,27.52899932861328,115.57499694824219)"><path fill="rgb(255,255,255)" fill-opacity="1" d=" M6.068999767303467,12.140000343322754 C6.068999767303467,12.140000343322754 6.068999767303467,-12.138999938964844 6.068999767303467,-12.138999938964844 C6.068999767303467,-15.491000175476074 3.3519999980926514,-18.208999633789062 0,-18.208999633789062 C-3.3519999980926514,-18.208999633789062 -6.068999767303467,-15.491000175476074 -6.068999767303467,-12.138999938964844 C-6.068999767303467,-12.138999938964844 -6.068999767303467,12.140000343322754 -6.068999767303467,12.140000343322754 C-6.068999767303467,15.491999626159668 -3.3519999980926514,18.208999633789062 0,18.208999633789062 C3.3519999980926514,18.208999633789062 6.068999767303467,15.491999626159668 6.068999767303467,12.140000343322754z"></path></g><g opacity="1" transform="matrix(1,0,0,1,27.52899932861328,82.19100189208984)"><path fill="rgb(255,255,255)" fill-opacity="1" d=" M6.068999767303467,3.0350000858306885 C6.068999767303467,3.0350000858306885 6.068999767303467,-3.0350000858306885 6.068999767303467,-3.0350000858306885 C6.068999767303467,-6.38700008392334 3.3519999980926514,-9.104000091552734 0,-9.104000091552734 C-3.3519999980926514,-9.104000091552734 -6.068999767303467,-6.38700008392334 -6.068999767303467,-3.0350000858306885 C-6.068999767303467,-3.0350000858306885 -6.068999767303467,3.0350000858306885 -6.068999767303467,3.0350000858306885 C-6.068999767303467,6.38700008392334 -3.3519999980926514,9.104000091552734 0,9.104000091552734 C3.3519999980926514,9.104000091552734 6.068999767303467,6.38700008392334 6.068999767303467,3.0350000858306885z"></path></g></g><g style="display: none;" transform="matrix(1,0,0,1,226.56600952148438,67.16199493408203)" opacity="1"><g opacity="1" transform="matrix(1,0,0,1,103.34200286865234,78.87699890136719)"><path fill="rgb(255,255,255)" fill-opacity="1" d=" M-97.09200286865234,72.72599792480469 C-100.40599822998047,72.72599792480469 -103.09200286865234,70.04000091552734 -103.09200286865234,66.72599792480469 C-103.09200286865234,66.72599792480469 -103.09200286865234,54.72600173950195 -103.09200286865234,54.72600173950195 C-103.09200286865234,51.41299819946289 -100.40599822998047,48.72600173950195 -97.09200286865234,48.72600173950195 C-93.77799987792969,48.72600173950195 -91.09200286865234,51.41299819946289 -91.09200286865234,54.72600173950195 C-91.09200286865234,54.72600173950195 -91.09200286865234,66.72599792480469 -91.09200286865234,66.72599792480469 C-91.09200286865234,70.04000091552734 -93.77799987792969,72.72599792480469 -97.09200286865234,72.72599792480469z M-97.09200286865234,33.72600173950195 C-100.40599822998047,33.72600173950195 -103.09200286865234,31.040000915527344 -103.09200286865234,27.72599983215332 C-103.09200286865234,27.72599983215332 -103.09200286865234,15.72599983215332 -103.09200286865234,15.72599983215332 C-103.09200286865234,12.413000106811523 -100.40599822998047,9.72599983215332 -97.09200286865234,9.72599983215332 C-93.77799987792969,9.72599983215332 -91.09200286865234,12.413000106811523 -91.09200286865234,15.72599983215332 C-91.09200286865234,15.72599983215332 -91.09200286865234,27.72599983215332 -91.09200286865234,27.72599983215332 C-91.09200286865234,31.040000915527344 -93.77799987792969,33.72600173950195 -97.09200286865234,33.72600173950195z M-97.09200286865234,-5.27400016784668 C-100.40599822998047,-5.27400016784668 -103.09200286865234,-7.960000038146973 -103.09200286865234,-11.27400016784668 C-103.09200286865234,-11.27400016784668 -103.09200286865234,-23.27400016784668 -103.09200286865234,-23.27400016784668 C-103.09200286865234,-26.586999893188477 -100.40599822998047,-29.27400016784668 -97.09200286865234,-29.27400016784668 C-93.77799987792969,-29.27400016784668 -91.09200286865234,-26.586999893188477 -91.09200286865234,-23.27400016784668 C-91.09200286865234,-23.27400016784668 -91.09200286865234,-11.27400016784668 -91.09200286865234,-11.27400016784668 C-91.09200286865234,-7.960000038146973 -93.77799987792969,-5.27400016784668 -97.09200286865234,-5.27400016784668z M-97.09200286865234,-44.27399826049805 C-100.40599822998047,-44.27399826049805 -103.09200286865234,-46.959999084472656 -103.09200286865234,-50.27399826049805 C-103.09200286865234,-50.27399826049805 -103.09200286865234,-51.89799880981445 -103.09200286865234,-51.89799880981445 C-103.09200286865234,-51.89799880981445 -103.09200286865234,-52.54199981689453 -103.09200286865234,-52.54199981689453 C-103.09200286865234,-52.54199981689453 -103.09200286865234,-52.66899871826172 -103.09200286865234,-52.66899871826172 C-103.09200286865234,-52.66899871826172 -103.09200286865234,-52.709999084472656 -103.09200286865234,-52.709999084472656 C-103.09200286865234,-52.709999084472656 -103.09200286865234,-52.75299835205078 -103.09200286865234,-52.75299835205078 C-103.03500366210938,-54.52299880981445 -102.8010025024414,-56.28200149536133 -102.39600372314453,-58.00600051879883 C-102.39600372314453,-58.00600051879883 -102.37799835205078,-58.084999084472656 -102.37799835205078,-58.084999084472656 C-102.37799835205078,-58.084999084472656 -102.37799835205078,-58.125999450683594 -102.37799835205078,-58.125999450683594 C-102.37799835205078,-58.125999450683594 -102.37799835205078,-58.165000915527344 -102.37799835205078,-58.165000915527344 C-102.37799835205078,-58.165000915527344 -102.37799835205078,-58.20399856567383 -102.37799835205078,-58.20399856567383 C-102.37799835205078,-58.20399856567383 -102.37799835205078,-58.2400016784668 -102.37799835205078,-58.2400016784668 C-102.37799835205078,-58.2400016784668 -102.37799835205078,-58.27799987792969 -102.37799835205078,-58.27799987792969 C-102.37799835205078,-58.27799987792969 -102.37799835205078,-58.32099914550781 -102.37799835205078,-58.32099914550781 C-102.31199645996094,-58.58700180053711 -102.24299621582031,-58.85499954223633 -102.16799926757812,-59.11899948120117 C-102.16799926757812,-59.11899948120117 -102.16799926757812,-59.15800094604492 -102.16799926757812,-59.15800094604492 C-102.16799926757812,-59.15800094604492 -102.16799926757812,-59.196998596191406 -102.16799926757812,-59.196998596191406 C-102.16799926757812,-59.196998596191406 -102.16799926757812,-59.23099899291992 -102.16799926757812,-59.23099899291992 C-102.16799926757812,-59.23099899291992 -102.16799926757812,-59.26900100708008 -102.16799926757812,-59.26900100708008 C-102.16799926757812,-59.26900100708008 -102.16799926757812,-59.30400085449219 -102.16799926757812,-59.30400085449219 C-102.16799926757812,-59.30400085449219 -102.16799926757812,-59.3380012512207 -102.16799926757812,-59.3380012512207 C-102.16799926757812,-59.3380012512207 -102.16799926757812,-59.369998931884766 -102.16799926757812,-59.369998931884766 C-102.16799926757812,-59.369998931884766 -102.16799926757812,-59.40299987792969 -102.16799926757812,-59.40299987792969 C-102.16799926757812,-59.40299987792969 -102.16799926757812,-59.43899917602539 -102.16799926757812,-59.43899917602539 C-102.16799926757812,-59.43899917602539 -102.16799926757812,-59.47200012207031 -102.16799926757812,-59.47200012207031 C-102.16799926757812,-59.47200012207031 -102.16799926757812,-59.50600051879883 -102.16799926757812,-59.50600051879883 C-102.16799926757812,-59.50600051879883 -102.16799926757812,-59.54100036621094 -102.16799926757812,-59.54100036621094 C-102.16799926757812,-59.54100036621094 -102.16799926757812,-59.57699966430664 -102.16799926757812,-59.57699966430664 C-102.16799926757812,-59.57699966430664 -102.16799926757812,-59.61399841308594 -102.16799926757812,-59.61399841308594 C-102.16799926757812,-59.61399841308594 -102.16799926757812,-59.645999908447266 -102.16799926757812,-59.645999908447266 C-102.16799926757812,-59.645999908447266 -102.16799926757812,-59.68299865722656 -102.16799926757812,-59.68299865722656 C-102.16799926757812,-59.68299865722656 -102.16799926757812,-59.71799850463867 -102.16799926757812,-59.71799850463867 C-102.16799926757812,-59.71799850463867 -102.16799926757812,-59.755001068115234 -102.16799926757812,-59.755001068115234 C-101.93800354003906,-60.499000549316406 -101.67500305175781,-61.22800064086914 -101.37899780273438,-61.94200134277344 C-100.45099639892578,-64.18699645996094 -98.26100158691406,-65.6500015258789 -95.83200073242188,-65.64900207519531 C-95.052001953125,-65.64900207519531 -94.27899932861328,-65.49800109863281 -93.55799865722656,-65.19999694824219 C-90.49299621582031,-63.94200134277344 -89.02799987792969,-60.4379997253418 -90.28500366210938,-57.37300109863281 C-91.01000213623047,-55.60100173950195 -91.38200378417969,-53.70500183105469 -91.37999725341797,-51.790000915527344 C-91.37999725341797,-51.790000915527344 -91.37999725341797,-50.183998107910156 -91.37999725341797,-50.183998107910156 C-91.42400360107422,-47.013999938964844 -93.9260025024414,-44.42599868774414 -97.09200286865234,-44.27399826049805z M-79.91999816894531,-66.32499694824219 C-82.83300018310547,-66.33000183105469 -85.3219985961914,-68.4260025024414 -85.82099914550781,-71.29499816894531 C-86.38899993896484,-74.55999755859375 -84.2040023803711,-77.66600036621094 -80.94000244140625,-78.23400115966797 C-79.61900329589844,-78.46499633789062 -78.28199768066406,-78.59600067138672 -76.94100189208984,-78.62699890136719 C-76.94100189208984,-78.62699890136719 -68.96399688720703,-78.62699890136719 -68.96399688720703,-78.62699890136719 C-65.6500015258789,-78.62699890136719 -62.9640007019043,-75.94100189208984 -62.9640007019043,-72.62699890136719 C-62.9640007019043,-69.31400299072266 -65.6500015258789,-66.62699890136719 -68.96399688720703,-66.62699890136719 C-68.96399688720703,-66.62699890136719 -76.33799743652344,-66.62699890136719 -76.33799743652344,-66.62699890136719 C-77.19100189208984,-66.62699890136719 -78.04100036621094,-66.5530014038086 -78.88200378417969,-66.40799713134766 C-79.2249984741211,-66.3489990234375 -79.5719985961914,-66.3219985961914 -79.91999816894531,-66.32499694824219z M-29.964000701904297,-66.6240005493164 C-29.964000701904297,-66.6240005493164 -41.9640007019043,-66.6240005493164 -41.9640007019043,-66.6240005493164 C-45.27799987792969,-66.6240005493164 -47.9640007019043,-69.30999755859375 -47.9640007019043,-72.6240005493164 C-47.9640007019043,-75.93800354003906 -45.27799987792969,-78.6240005493164 -41.9640007019043,-78.6240005493164 C-41.9640007019043,-78.6240005493164 -29.964000701904297,-78.6240005493164 -29.964000701904297,-78.6240005493164 C-26.650999069213867,-78.6240005493164 -23.964000701904297,-75.93800354003906 -23.964000701904297,-72.6240005493164 C-23.9689998626709,-69.31300354003906 -26.65399932861328,-66.63300323486328 -29.964000701904297,-66.63300323486328 C-29.964000701904297,-66.63300323486328 -29.964000701904297,-66.6240005493164 -29.964000701904297,-66.6240005493164z M9.03600025177002,-66.6240005493164 C9.03600025177002,-66.6240005493164 -2.9639999866485596,-66.6240005493164 -2.9639999866485596,-66.6240005493164 C-6.2779998779296875,-66.6240005493164 -8.96399974822998,-69.30999755859375 -8.96399974822998,-72.6240005493164 C-8.96399974822998,-75.93800354003906 -6.2779998779296875,-78.6240005493164 -2.9639999866485596,-78.6240005493164 C-2.9639999866485596,-78.6240005493164 9.03600025177002,-78.6240005493164 9.03600025177002,-78.6240005493164 C12.348999977111816,-78.6240005493164 15.03600025177002,-75.93800354003906 15.03600025177002,-72.6240005493164 C15.031000137329102,-69.31300354003906 12.345999717712402,-66.63300323486328 9.03600025177002,-66.63300323486328 C9.03600025177002,-66.63300323486328 9.03600025177002,-66.6240005493164 9.03600025177002,-66.6240005493164z M48.0359992980957,-66.6240005493164 C48.0359992980957,-66.6240005493164 36.0359992980957,-66.6240005493164 36.0359992980957,-66.6240005493164 C32.72200012207031,-66.6240005493164 30.035999298095703,-69.30999755859375 30.035999298095703,-72.6240005493164 C30.035999298095703,-75.93800354003906 32.72200012207031,-78.6240005493164 36.0359992980957,-78.6240005493164 C36.0359992980957,-78.6240005493164 48.0359992980957,-78.6240005493164 48.0359992980957,-78.6240005493164 C51.3489990234375,-78.6240005493164 54.0359992980957,-75.93800354003906 54.0359992980957,-72.6240005493164 C54.03099822998047,-69.31300354003906 51.34600067138672,-66.63300323486328 48.0359992980957,-66.63300323486328 C48.0359992980957,-66.63300323486328 48.0359992980957,-66.6240005493164 48.0359992980957,-66.6240005493164z M84.46399688720703,-65.04399871826172 C83.67500305175781,-65.04399871826172 82.89299774169922,-65.19999694824219 82.16400146484375,-65.50299835205078 C80.3759994506836,-66.24600219726562 78.45800018310547,-66.6259994506836 76.52100372314453,-66.6240005493164 C76.52100372314453,-66.6240005493164 75.03600311279297,-66.6240005493164 75.03600311279297,-66.6240005493164 C71.72200012207031,-66.6240005493164 69.03600311279297,-69.30999755859375 69.03600311279297,-72.6240005493164 C69.03600311279297,-75.93800354003906 71.72200012207031,-78.6240005493164 75.03600311279297,-78.6240005493164 C75.03600311279297,-78.6240005493164 78.05699920654297,-78.6240005493164 78.05699920654297,-78.6240005493164 C80.7040023803711,-78.4729995727539 83.31300354003906,-77.93000030517578 85.80000305175781,-77.01100158691406 C85.80000305175781,-77.01100158691406 85.83300018310547,-77.01100158691406 85.83300018310547,-77.01100158691406 C85.83300018310547,-77.01100158691406 85.86000061035156,-77.01100158691406 85.86000061035156,-77.01100158691406 C85.86000061035156,-77.01100158691406 85.88700103759766,-77.01100158691406 85.88700103759766,-77.01100158691406 C85.88700103759766,-77.01100158691406 85.90799713134766,-77.01100158691406 85.90799713134766,-77.01100158691406 C85.90799713134766,-77.01100158691406 85.9260025024414,-77.01100158691406 85.9260025024414,-77.01100158691406 C85.9260025024414,-77.01100158691406 85.94400024414062,-77.01100158691406 85.94400024414062,-77.01100158691406 C85.94400024414062,-77.01100158691406 85.96199798583984,-77.01100158691406 85.96199798583984,-77.01100158691406 C85.96199798583984,-77.01100158691406 85.9800033569336,-77.01100158691406 85.9800033569336,-77.01100158691406 C85.9800033569336,-77.01100158691406 86.0009994506836,-77.01100158691406 86.0009994506836,-77.01100158691406 C86.0009994506836,-77.01100158691406 86.01899719238281,-77.01100158691406 86.01899719238281,-77.01100158691406 C86.01899719238281,-77.01100158691406 86.04000091552734,-77.01100158691406 86.04000091552734,-77.01100158691406 C86.04000091552734,-77.01100158691406 86.05500030517578,-77.01100158691406 86.05500030517578,-77.01100158691406 C86.05500030517578,-77.01100158691406 86.0790023803711,-77.01100158691406 86.0790023803711,-77.01100158691406 C86.0790023803711,-77.01100158691406 86.10299682617188,-77.01100158691406 86.10299682617188,-77.01100158691406 C86.10299682617188,-77.01100158691406 86.12999725341797,-77.01100158691406 86.12999725341797,-77.01100158691406 C86.12999725341797,-77.01100158691406 86.15699768066406,-77.01100158691406 86.15699768066406,-77.01100158691406 C86.15699768066406,-77.01100158691406 86.18399810791016,-77.01100158691406 86.18399810791016,-77.01100158691406 C86.18399810791016,-77.01100158691406 86.21099853515625,-77.01100158691406 86.21099853515625,-77.01100158691406 C86.21099853515625,-77.01100158691406 86.24099731445312,-77.01100158691406 86.24099731445312,-77.01100158691406 C86.24099731445312,-77.01100158691406 86.26799774169922,-77.01100158691406 86.26799774169922,-77.01100158691406 C86.26799774169922,-77.01100158691406 86.2979965209961,-77.01100158691406 86.2979965209961,-77.01100158691406 C86.2979965209961,-77.01100158691406 86.33100128173828,-77.01100158691406 86.33100128173828,-77.01100158691406 C86.33100128173828,-77.01100158691406 86.36399841308594,-77.01100158691406 86.36399841308594,-77.01100158691406 C86.36399841308594,-77.01100158691406 86.39700317382812,-77.01100158691406 86.39700317382812,-77.01100158691406 C86.39700317382812,-77.01100158691406 86.43299865722656,-76.99500274658203 86.43299865722656,-76.99500274658203 C86.43299865722656,-76.99500274658203 86.46900177001953,-76.98100280761719 86.46900177001953,-76.98100280761719 C86.46900177001953,-76.98100280761719 86.50399780273438,-76.96499633789062 86.50399780273438,-76.96499633789062 C86.50399780273438,-76.96499633789062 86.64299774169922,-76.90799713134766 86.64299774169922,-76.90799713134766 C89.6969985961914,-75.63200378417969 91.14099884033203,-72.1259994506836 89.87100219726562,-69.06999969482422 C89.06099700927734,-66.75 86.91999816894531,-65.15899658203125 84.46399688720703,-65.0530014038086 C84.46399688720703,-65.0530014038086 84.46399688720703,-65.04399871826172 84.46399688720703,-65.04399871826172z M97.2750015258789,-38.37699890136719 C93.96199798583984,-38.37699890136719 91.2750015258789,-41.0629997253418 91.2750015258789,-44.37699890136719 C91.2750015258789,-44.37699890136719 91.2750015258789,-51.87699890136719 91.2750015258789,-51.87699890136719 C91.27400207519531,-52.70800018310547 91.20500183105469,-53.5369987487793 91.06500244140625,-54.356998443603516 C90.52200317382812,-57.61800003051758 92.71900177001953,-60.702999114990234 95.97899627685547,-61.25699996948242 C96.31300354003906,-61.314998626708984 96.6510009765625,-61.34400177001953 96.98999786376953,-61.34400177001953 C99.91000366210938,-61.34000015258789 102.40299987792969,-59.23699951171875 102.89700317382812,-56.35900115966797 C102.91500091552734,-56.250999450683594 102.93299865722656,-56.13999938964844 102.947998046875,-56.03200149536133 C102.947998046875,-56.03200149536133 102.947998046875,-55.99300003051758 102.947998046875,-55.99300003051758 C102.947998046875,-55.99300003051758 102.947998046875,-55.94499969482422 102.947998046875,-55.94499969482422 C102.947998046875,-55.94499969482422 102.947998046875,-55.9119987487793 102.947998046875,-55.9119987487793 C102.947998046875,-55.9119987487793 102.947998046875,-55.87300109863281 102.947998046875,-55.87300109863281 C102.947998046875,-55.87300109863281 102.947998046875,-55.8390007019043 102.947998046875,-55.8390007019043 C102.947998046875,-55.8390007019043 102.947998046875,-55.816001892089844 102.947998046875,-55.816001892089844 C102.947998046875,-55.816001892089844 102.947998046875,-55.71900177001953 102.947998046875,-55.71900177001953 C102.947998046875,-55.71900177001953 102.947998046875,-55.6870002746582 102.947998046875,-55.6870002746582 C102.947998046875,-55.6870002746582 102.947998046875,-55.54199981689453 102.947998046875,-55.54199981689453 C102.947998046875,-55.54199981689453 102.947998046875,-55.45000076293945 102.947998046875,-55.45000076293945 C102.947998046875,-55.45000076293945 102.947998046875,-55.37799835205078 102.947998046875,-55.37799835205078 C102.947998046875,-55.37799835205078 102.96499633789062,-55.24300003051758 102.96499633789062,-55.24300003051758 C102.96499633789062,-55.24300003051758 102.96499633789062,-55.20899963378906 102.96499633789062,-55.20899963378906 C103.03199768066406,-54.689998626708984 103.08000183105469,-54.172000885009766 103.11599731445312,-53.64400100708008 C103.11599731445312,-53.64400100708008 103.11599731445312,-53.61000061035156 103.11599731445312,-53.61000061035156 C103.11599731445312,-53.61000061035156 103.11599731445312,-53.47200012207031 103.11599731445312,-53.47200012207031 C103.11599731445312,-53.47200012207031 103.11599731445312,-53.400001525878906 103.11599731445312,-53.400001525878906 C103.11599731445312,-53.400001525878906 103.11599731445312,-53.26599884033203 103.11599731445312,-53.26599884033203 C103.11599731445312,-53.26599884033203 103.11599731445312,-51.91600036621094 103.11599731445312,-51.91600036621094 C103.11599731445312,-51.91600036621094 103.11599731445312,-44.41600036621094 103.11599731445312,-44.41600036621094 C103.13999938964844,-41.145999908447266 100.54299926757812,-38.45899963378906 97.2750015258789,-38.37300109863281 C97.2750015258789,-38.37300109863281 97.2750015258789,-38.37699890136719 97.2750015258789,-38.37699890136719z M97.2750015258789,0.6240000128746033 C93.96199798583984,0.6240000128746033 91.2750015258789,-2.062999963760376 91.2750015258789,-5.376999855041504 C91.2750015258789,-5.376999855041504 91.2750015258789,-17.37700080871582 91.2750015258789,-17.37700080871582 C91.2750015258789,-20.690000534057617 93.96199798583984,-23.37700080871582 97.2750015258789,-23.37700080871582 C100.58799743652344,-23.37700080871582 103.2750015258789,-20.690000534057617 103.2750015258789,-17.37700080871582 C103.2750015258789,-17.37700080871582 103.2750015258789,-5.376999855041504 103.2750015258789,-5.376999855041504 C103.2770004272461,-2.062999963760376 100.59100341796875,0.625 97.27799987792969,0.6269999742507935 C97.27799987792969,0.6269999742507935 97.2750015258789,0.6269999742507935 97.2750015258789,0.6269999742507935 C97.2750015258789,0.6269999742507935 97.2750015258789,0.6240000128746033 97.2750015258789,0.6240000128746033z M97.2750015258789,39.624000549316406 C93.96199798583984,39.624000549316406 91.2750015258789,36.9379997253418 91.2750015258789,33.624000549316406 C91.2750015258789,33.624000549316406 91.2750015258789,21.624000549316406 91.2750015258789,21.624000549316406 C91.2750015258789,18.31100082397461 93.96199798583984,15.62399959564209 97.2750015258789,15.62399959564209 C100.58799743652344,15.62399959564209 103.2750015258789,18.31100082397461 103.2750015258789,21.624000549316406 C103.2750015258789,21.624000549316406 103.2750015258789,33.624000549316406 103.2750015258789,33.624000549316406 C103.2770004272461,36.9379997253418 100.59100341796875,39.625 97.27799987792969,39.62699890136719 C97.27799987792969,39.62699890136719 97.2750015258789,39.62699890136719 97.2750015258789,39.62699890136719 C97.2750015258789,39.62699890136719 97.2750015258789,39.624000549316406 97.2750015258789,39.624000549316406z M97.2750015258789,78.6240005493164 C93.96199798583984,78.6240005493164 91.2750015258789,75.93800354003906 91.2750015258789,72.6240005493164 C91.2750015258789,72.6240005493164 91.2750015258789,60.624000549316406 91.2750015258789,60.624000549316406 C91.2750015258789,57.31100082397461 93.96199798583984,54.624000549316406 97.2750015258789,54.624000549316406 C100.58799743652344,54.624000549316406 103.2750015258789,57.31100082397461 103.2750015258789,60.624000549316406 C103.2750015258789,60.624000549316406 103.2750015258789,72.6240005493164 103.2750015258789,72.6240005493164 C103.2770004272461,75.93800354003906 100.59100341796875,78.625 97.27799987792969,78.62699890136719 C97.27799987792969,78.62699890136719 97.2750015258789,78.62699890136719 97.2750015258789,78.62699890136719 C97.2750015258789,78.62699890136719 97.2750015258789,78.6240005493164 97.2750015258789,78.6240005493164z"></path></g><g opacity="1" transform="matrix(1,0,0,1,103.75,46.74300003051758)"><path fill="rgb(255,255,255)" fill-opacity="1" d=" M84,6 C84,6 72,6 72,6 C68.68699645996094,6 66,3.313999891281128 66,0 C66,-3.312999963760376 68.68699645996094,-6 72,-6 C72,-6 84,-6 84,-6 C87.31300354003906,-6 90,-3.312999963760376 90,0 C90,3.313999891281128 87.31300354003906,6 84,6z M45,6 C45,6 33,6 33,6 C29.687000274658203,6 27,3.313999891281128 27,0 C27,-3.312999963760376 29.687000274658203,-6 33,-6 C33,-6 45,-6 45,-6 C48.3129997253418,-6 51,-3.312999963760376 51,0 C51,3.313999891281128 48.3129997253418,6 45,6z M6,6 C6,6 -6,6 -6,6 C-9.312999725341797,6 -12,3.313999891281128 -12,0 C-12,-3.312999963760376 -9.312999725341797,-6 -6,-6 C-6,-6 6,-6 6,-6 C9.312999725341797,-6 12,-3.312999963760376 12,0 C12,3.313999891281128 9.312999725341797,6 6,6z M-33,6 C-33,6 -45,6 -45,6 C-48.3129997253418,6 -51,3.313999891281128 -51,0 C-51,-3.312999963760376 -48.3129997253418,-6 -45,-6 C-45,-6 -33,-6 -33,-6 C-29.687000274658203,-6 -27,-3.312999963760376 -27,0 C-27,3.313999891281128 -29.687000274658203,6 -33,6z M-72,6 C-72,6 -84,6 -84,6 C-87.31300354003906,6 -90,3.313999891281128 -90,0 C-90,-3.312999963760376 -87.31300354003906,-6 -84,-6 C-84,-6 -72,-6 -72,-6 C-68.68699645996094,-6 -66,-3.312999963760376 -66,0 C-66,3.313999891281128 -68.68699645996094,6 -72,6z"></path></g></g><g style="display: block;" transform="matrix(0,0,0,0,199.0500030517578,183.0500030517578)" opacity="1"><g opacity="1" transform="matrix(1,0,0,1,61.2400016784668,57.986000061035156)"><path fill="rgb(255,255,255)" fill-opacity="1" d=" M-15.590999603271484,57.112998962402344 C-17.075000762939453,57.73500061035156 -18.746000289916992,57.73500061035156 -20.229000091552734,57.112998962402344 C-20.968000411987305,56.808998107910156 -21.639999389648438,56.36399841308594 -22.208999633789062,55.803001403808594 C-22.208999633789062,55.803001403808594 -58.619998931884766,19.38599967956543 -58.619998931884766,19.38599967956543 C-60.9900016784668,17.016000747680664 -60.9900016784668,13.173999786376953 -58.619998931884766,10.803000450134277 C-56.25,8.432999610900879 -52.40700149536133,8.432999610900879 -50.0369987487793,10.803000450134277 C-50.0369987487793,10.803000450134277 -23.979000091552734,36.861000061035156 -23.979000091552734,36.861000061035156 C-23.979000091552734,36.861000061035156 -23.979000091552734,21.165000915527344 -23.979000091552734,21.165000915527344 C-23.926000595092773,-22.38800048828125 11.366999626159668,-57.68299865722656 54.92100143432617,-57.736000061035156 C58.27299880981445,-57.736000061035156 60.9900016784668,-55.01900100708008 60.9900016784668,-51.66699981689453 C60.9900016784668,-48.314998626708984 58.27299880981445,-45.597999572753906 54.92100143432617,-45.597999572753906 C18.06800079345703,-45.551998138427734 -11.795000076293945,-15.687000274658203 -11.840999603271484,21.165000915527344 C-11.840999603271484,21.165000915527344 -11.840999603271484,36.861000061035156 -11.840999603271484,36.861000061035156 C-11.840999603271484,36.861000061035156 14.217000007629395,10.803000450134277 14.217000007629395,10.803000450134277 C16.586999893188477,8.432999610900879 20.43000030517578,8.432999610900879 22.799999237060547,10.803000450134277 C25.170000076293945,13.173999786376953 25.170000076293945,17.016000747680664 22.799999237060547,19.38599967956543 C22.799999237060547,19.38599967956543 -13.61400032043457,55.803001403808594 -13.61400032043457,55.803001403808594 C-14.182000160217285,56.36399841308594 -14.854000091552734,56.80799865722656 -15.590999603271484,57.112998962402344z"></path></g></g></g></svg>