<svg width="214" height="182" viewBox="0 0 214 182" fill="none" xmlns="http://www.w3.org/2000/svg">
<path fill-rule="evenodd" clip-rule="evenodd" d="M57.1 0H92.73C95.78 0 98.58 1.25 100.58 3.25C102.61 5.28 103.83 8.05 103.83 11.1V42.56H100.64V12.18H49.15V87.44H56.76V99.05C56.76 100.63 57.03 102.15 57.53 103.56H57.1C54.05 103.56 51.25 102.31 49.25 100.31C47.22 98.27 46 95.51 46 92.45V11.1C46 8.05 47.25 5.25 49.25 3.25C51.28 1.22 54.04 0 57.1 0ZM140.95 33.45C140.58 27.65 138.31 22.89 134.89 19.48C131.25 15.85 126.3 13.74 120.95 13.55L123.41 16.5C124.14 17.38 124.03 18.68 123.15 19.41C122.27 20.14 120.97 20.03 120.24 19.15L114.52 12.3C113.8 11.44 113.9 10.16 114.74 9.42L121.45 3.53C122.31 2.78 123.61 2.87 124.36 3.72C125.11 4.58 125.02 5.88 124.17 6.63L121.01 9.41C127.44 9.62 133.41 12.16 137.81 16.54C141.88 20.6 144.6 26.23 145.06 33.03L147.64 29.95C148.37 29.07 149.68 28.96 150.55 29.69C151.43 30.42 151.54 31.73 150.81 32.6L145.08 39.44C144.36 40.3 143.09 40.43 142.21 39.73L135.23 34.17C134.34 33.46 134.19 32.16 134.9 31.26C135.61 30.37 136.91 30.22 137.81 30.93L140.95 33.45ZM168.88 59.7V95.33C168.88 98.38 167.63 101.18 165.63 103.18C163.6 105.21 160.83 106.43 157.78 106.43H78.88C75.83 106.43 73.03 105.18 71.03 103.18C69 101.15 67.78 98.38 67.78 95.33V59.7C67.78 56.65 69.03 53.85 71.03 51.85C73.06 49.82 75.82 48.6 78.88 48.6H157.78C160.83 48.6 163.63 49.85 165.63 51.85C167.66 53.88 168.88 56.64 168.88 59.7ZM81.41 77.49C81.41 80 79.38 82.06 76.84 82.06C74.33 82.06 72.27 80.03 72.27 77.49C72.27 74.98 74.3 72.92 76.84 72.92C79.36 72.92 81.41 74.95 81.41 77.49ZM83.88 51.75V103.24H156.7V51.75H83.88Z" fill="white"/>
<path d="M16.5808 145H12.7028V144.132L13.8928 143.782V136.236L12.7028 135.872V135.004H16.5808V135.872L15.4048 136.236V143.782L16.5808 144.132V145ZM22.524 137.314C23.4013 137.314 24.0733 137.533 24.54 137.972C25.0067 138.411 25.24 139.115 25.24 140.086V145H23.77V140.296C23.77 139.708 23.644 139.269 23.392 138.98C23.1493 138.681 22.7573 138.532 22.216 138.532C21.4507 138.532 20.9187 138.761 20.62 139.218C20.3307 139.675 20.186 140.333 20.186 141.192V145H18.702V137.454H19.878L20.088 138.462H20.172C20.34 138.201 20.5453 137.986 20.788 137.818C21.0307 137.65 21.3013 137.524 21.6 137.44C21.8987 137.356 22.2067 137.314 22.524 137.314ZM29.4244 137.454V145H27.9404V137.454H29.4244ZM28.6964 134.584C28.9204 134.584 29.1164 134.649 29.2844 134.78C29.4524 134.911 29.5364 135.13 29.5364 135.438C29.5364 135.737 29.4524 135.956 29.2844 136.096C29.1164 136.227 28.9204 136.292 28.6964 136.292C28.4537 136.292 28.2484 136.227 28.0804 136.096C27.9217 135.956 27.8424 135.737 27.8424 135.438C27.8424 135.13 27.9217 134.911 28.0804 134.78C28.2484 134.649 28.4537 134.584 28.6964 134.584ZM35.2128 145.14C34.5221 145.14 33.9155 145.005 33.3928 144.734C32.8701 144.463 32.4641 144.043 32.1748 143.474C31.8855 142.895 31.7408 142.163 31.7408 141.276C31.7408 140.343 31.8948 139.587 32.2028 139.008C32.5201 138.429 32.9448 138.005 33.4768 137.734C34.0181 137.454 34.6341 137.314 35.3248 137.314C35.7448 137.314 36.1368 137.361 36.5008 137.454C36.8741 137.538 37.1821 137.636 37.4248 137.748L36.9768 138.952C36.7155 138.849 36.4355 138.761 36.1368 138.686C35.8475 138.611 35.5721 138.574 35.3108 138.574C34.8441 138.574 34.4568 138.677 34.1488 138.882C33.8501 139.078 33.6261 139.377 33.4768 139.778C33.3368 140.17 33.2668 140.665 33.2668 141.262C33.2668 141.831 33.3415 142.312 33.4908 142.704C33.6401 143.096 33.8595 143.395 34.1488 143.6C34.4475 143.796 34.8161 143.894 35.2548 143.894C35.6748 143.894 36.0435 143.847 36.3608 143.754C36.6781 143.661 36.9768 143.539 37.2568 143.39V144.678C36.9861 144.837 36.6921 144.953 36.3748 145.028C36.0575 145.103 35.6701 145.14 35.2128 145.14ZM40.9421 145H39.4581V134.36H40.9421V145ZM45.1765 137.454V145H43.6925V137.454H45.1765ZM44.4485 134.584C44.6725 134.584 44.8685 134.649 45.0365 134.78C45.2045 134.911 45.2885 135.13 45.2885 135.438C45.2885 135.737 45.2045 135.956 45.0365 136.096C44.8685 136.227 44.6725 136.292 44.4485 136.292C44.2059 136.292 44.0005 136.227 43.8325 136.096C43.6739 135.956 43.5945 135.737 43.5945 135.438C43.5945 135.13 43.6739 134.911 43.8325 134.78C44.0005 134.649 44.2059 134.584 44.4485 134.584ZM51.749 137.314C52.6263 137.314 53.2983 137.533 53.765 137.972C54.2317 138.411 54.465 139.115 54.465 140.086V145H52.995V140.296C52.995 139.708 52.869 139.269 52.617 138.98C52.3743 138.681 51.9823 138.532 51.441 138.532C50.6757 138.532 50.1437 138.761 49.845 139.218C49.5557 139.675 49.411 140.333 49.411 141.192V145H47.927V137.454H49.103L49.313 138.462H49.397C49.565 138.201 49.7703 137.986 50.013 137.818C50.2557 137.65 50.5263 137.524 50.825 137.44C51.1237 137.356 51.4317 137.314 51.749 137.314ZM60.0914 137.314C61.0434 137.314 61.7527 137.524 62.2194 137.944C62.686 138.355 62.9194 139.003 62.9194 139.89V145H61.8694L61.5754 143.95H61.5194C61.3047 144.221 61.0807 144.445 60.8474 144.622C60.6234 144.799 60.362 144.93 60.0634 145.014C59.774 145.098 59.4194 145.14 58.9994 145.14C58.5514 145.14 58.1454 145.061 57.7814 144.902C57.4267 144.734 57.1467 144.482 56.9414 144.146C56.736 143.801 56.6334 143.371 56.6334 142.858C56.6334 142.093 56.9227 141.509 57.5014 141.108C58.0894 140.707 58.9807 140.487 60.1754 140.45L61.4634 140.408V139.988C61.4634 139.428 61.3374 139.036 61.0854 138.812C60.8334 138.588 60.4787 138.476 60.0214 138.476C59.6294 138.476 59.256 138.532 58.9014 138.644C58.5467 138.756 58.2107 138.891 57.8934 139.05L57.4174 137.972C57.772 137.785 58.178 137.631 58.6354 137.51C59.102 137.379 59.5874 137.314 60.0914 137.314ZM60.4414 141.402C59.5827 141.439 58.9854 141.584 58.6494 141.836C58.3227 142.079 58.1594 142.424 58.1594 142.872C58.1594 143.264 58.276 143.549 58.5094 143.726C58.752 143.903 59.0554 143.992 59.4194 143.992C60.0074 143.992 60.4927 143.829 60.8754 143.502C61.258 143.175 61.4494 142.685 61.4494 142.032V141.374L60.4414 141.402ZM72.6491 137.314C73.3118 137.314 73.8811 137.454 74.3571 137.734C74.8331 138.005 75.1971 138.397 75.4491 138.91C75.7105 139.423 75.8411 140.03 75.8411 140.73V141.542H70.7731C70.7918 142.317 70.9925 142.909 71.3751 143.32C71.7671 143.731 72.3131 143.936 73.0131 143.936C73.4985 143.936 73.9278 143.894 74.3011 143.81C74.6838 143.717 75.0758 143.581 75.4771 143.404V144.636C75.1038 144.804 74.7211 144.93 74.3291 145.014C73.9465 145.098 73.4891 145.14 72.9571 145.14C72.2291 145.14 71.5851 144.995 71.0251 144.706C70.4651 144.417 70.0265 143.987 69.7091 143.418C69.4011 142.839 69.2471 142.13 69.2471 141.29C69.2471 140.441 69.3871 139.722 69.6671 139.134C69.9565 138.546 70.3531 138.098 70.8571 137.79C71.3705 137.473 71.9678 137.314 72.6491 137.314ZM72.6491 138.462C72.1171 138.462 71.6878 138.635 71.3611 138.98C71.0438 139.325 70.8571 139.815 70.8011 140.45H74.3571C74.3571 140.058 74.2965 139.713 74.1751 139.414C74.0538 139.115 73.8671 138.882 73.6151 138.714C73.3631 138.546 73.0411 138.462 72.6491 138.462ZM79.5969 145H78.1129V134.36H79.5969V145ZM88.994 145.14C88.0887 145.14 87.356 144.813 86.796 144.16C86.2454 143.507 85.97 142.536 85.97 141.248C85.97 139.951 86.25 138.971 86.81 138.308C87.37 137.645 88.1074 137.314 89.022 137.314C89.4047 137.314 89.736 137.365 90.016 137.468C90.3054 137.561 90.5527 137.692 90.758 137.86C90.9727 138.028 91.1547 138.215 91.304 138.42H91.388C91.3694 138.289 91.346 138.103 91.318 137.86C91.29 137.608 91.276 137.384 91.276 137.188V134.36H92.76V145H91.598L91.346 143.992H91.276C91.136 144.207 90.9587 144.403 90.744 144.58C90.5387 144.748 90.2914 144.883 90.002 144.986C89.7127 145.089 89.3767 145.14 88.994 145.14ZM89.344 143.922C90.072 143.922 90.5854 143.721 90.884 143.32C91.1827 142.909 91.332 142.298 91.332 141.486V141.262C91.332 140.375 91.1874 139.699 90.898 139.232C90.618 138.765 90.0954 138.532 89.33 138.532C88.7234 138.532 88.266 138.779 87.958 139.274C87.65 139.759 87.496 140.427 87.496 141.276C87.496 142.125 87.65 142.779 87.958 143.236C88.266 143.693 88.728 143.922 89.344 143.922ZM96.9897 137.454V145H95.5057V137.454H96.9897ZM96.2617 134.584C96.4857 134.584 96.6817 134.649 96.8497 134.78C97.0177 134.911 97.1017 135.13 97.1017 135.438C97.1017 135.737 97.0177 135.956 96.8497 136.096C96.6817 136.227 96.4857 136.292 96.2617 136.292C96.019 136.292 95.8137 136.227 95.6457 136.096C95.487 135.956 95.4077 135.737 95.4077 135.438C95.4077 135.13 95.487 134.911 95.6457 134.78C95.8137 134.649 96.019 134.584 96.2617 134.584ZM104.752 142.872C104.752 143.367 104.631 143.782 104.388 144.118C104.145 144.454 103.795 144.711 103.338 144.888C102.881 145.056 102.33 145.14 101.686 145.14C101.154 145.14 100.697 145.098 100.314 145.014C99.9408 144.939 99.5955 144.827 99.2781 144.678V143.376C99.6141 143.535 100.001 143.679 100.44 143.81C100.879 143.931 101.308 143.992 101.728 143.992C102.288 143.992 102.689 143.903 102.932 143.726C103.184 143.549 103.31 143.311 103.31 143.012C103.31 142.844 103.263 142.695 103.17 142.564C103.077 142.424 102.899 142.284 102.638 142.144C102.386 141.995 102.013 141.827 101.518 141.64C101.042 141.444 100.636 141.253 100.3 141.066C99.9641 140.87 99.7075 140.641 99.5301 140.38C99.3528 140.109 99.2641 139.764 99.2641 139.344C99.2641 138.691 99.5255 138.191 100.048 137.846C100.58 137.491 101.28 137.314 102.148 137.314C102.605 137.314 103.035 137.361 103.436 137.454C103.847 137.538 104.243 137.669 104.626 137.846L104.136 138.98C103.921 138.877 103.697 138.793 103.464 138.728C103.24 138.653 103.011 138.593 102.778 138.546C102.554 138.499 102.321 138.476 102.078 138.476C101.63 138.476 101.289 138.546 101.056 138.686C100.823 138.826 100.706 139.022 100.706 139.274C100.706 139.451 100.757 139.605 100.86 139.736C100.972 139.867 101.163 139.997 101.434 140.128C101.705 140.259 102.073 140.417 102.54 140.604C103.007 140.781 103.403 140.963 103.73 141.15C104.066 141.337 104.318 141.565 104.486 141.836C104.663 142.107 104.752 142.452 104.752 142.872ZM110.707 137.314C111.613 137.314 112.341 137.641 112.891 138.294C113.451 138.947 113.731 139.923 113.731 141.22C113.731 142.069 113.605 142.788 113.353 143.376C113.101 143.964 112.747 144.407 112.289 144.706C111.832 144.995 111.3 145.14 110.693 145.14C110.311 145.14 109.975 145.093 109.685 145C109.396 144.897 109.149 144.767 108.943 144.608C108.747 144.44 108.575 144.263 108.425 144.076H108.327C108.355 144.244 108.379 144.445 108.397 144.678C108.416 144.902 108.425 145.103 108.425 145.28V148.36H106.941V137.454H108.145L108.355 138.462H108.425C108.575 138.257 108.752 138.065 108.957 137.888C109.163 137.711 109.41 137.571 109.699 137.468C109.989 137.365 110.325 137.314 110.707 137.314ZM110.357 138.532C109.891 138.532 109.517 138.625 109.237 138.812C108.957 138.989 108.752 139.26 108.621 139.624C108.5 139.979 108.435 140.431 108.425 140.982V141.206C108.425 141.785 108.486 142.279 108.607 142.69C108.729 143.091 108.929 143.399 109.209 143.614C109.499 143.819 109.891 143.922 110.385 143.922C110.805 143.922 111.146 143.81 111.407 143.586C111.678 143.353 111.879 143.031 112.009 142.62C112.14 142.209 112.205 141.733 112.205 141.192C112.205 140.371 112.056 139.722 111.757 139.246C111.459 138.77 110.992 138.532 110.357 138.532ZM122.693 141.22C122.693 141.845 122.609 142.401 122.441 142.886C122.273 143.371 122.035 143.782 121.727 144.118C121.419 144.454 121.046 144.711 120.607 144.888C120.168 145.056 119.674 145.14 119.123 145.14C118.619 145.14 118.152 145.056 117.723 144.888C117.294 144.711 116.92 144.454 116.603 144.118C116.295 143.782 116.052 143.371 115.875 142.886C115.698 142.401 115.609 141.841 115.609 141.206C115.609 140.375 115.749 139.671 116.029 139.092C116.318 138.513 116.729 138.075 117.261 137.776C117.802 137.468 118.437 137.314 119.165 137.314C119.856 137.314 120.462 137.468 120.985 137.776C121.517 138.075 121.932 138.513 122.231 139.092C122.539 139.671 122.693 140.38 122.693 141.22ZM117.135 141.22C117.135 141.78 117.205 142.265 117.345 142.676C117.485 143.077 117.704 143.385 118.003 143.6C118.302 143.815 118.684 143.922 119.151 143.922C119.618 143.922 120 143.815 120.299 143.6C120.598 143.385 120.817 143.077 120.957 142.676C121.097 142.265 121.167 141.78 121.167 141.22C121.167 140.641 121.092 140.156 120.943 139.764C120.803 139.372 120.584 139.073 120.285 138.868C119.996 138.653 119.613 138.546 119.137 138.546C118.437 138.546 117.928 138.779 117.611 139.246C117.294 139.713 117.135 140.371 117.135 141.22ZM130.006 142.872C130.006 143.367 129.885 143.782 129.642 144.118C129.4 144.454 129.05 144.711 128.592 144.888C128.135 145.056 127.584 145.14 126.94 145.14C126.408 145.14 125.951 145.098 125.568 145.014C125.195 144.939 124.85 144.827 124.532 144.678V143.376C124.868 143.535 125.256 143.679 125.694 143.81C126.133 143.931 126.562 143.992 126.982 143.992C127.542 143.992 127.944 143.903 128.186 143.726C128.438 143.549 128.564 143.311 128.564 143.012C128.564 142.844 128.518 142.695 128.424 142.564C128.331 142.424 128.154 142.284 127.892 142.144C127.64 141.995 127.267 141.827 126.772 141.64C126.296 141.444 125.89 141.253 125.554 141.066C125.218 140.87 124.962 140.641 124.784 140.38C124.607 140.109 124.518 139.764 124.518 139.344C124.518 138.691 124.78 138.191 125.302 137.846C125.834 137.491 126.534 137.314 127.402 137.314C127.86 137.314 128.289 137.361 128.69 137.454C129.101 137.538 129.498 137.669 129.88 137.846L129.39 138.98C129.176 138.877 128.952 138.793 128.718 138.728C128.494 138.653 128.266 138.593 128.032 138.546C127.808 138.499 127.575 138.476 127.332 138.476C126.884 138.476 126.544 138.546 126.31 138.686C126.077 138.826 125.96 139.022 125.96 139.274C125.96 139.451 126.012 139.605 126.114 139.736C126.226 139.867 126.418 139.997 126.688 140.128C126.959 140.259 127.328 140.417 127.794 140.604C128.261 140.781 128.658 140.963 128.984 141.15C129.32 141.337 129.572 141.565 129.74 141.836C129.918 142.107 130.006 142.452 130.006 142.872ZM133.68 137.454V145H132.196V137.454H133.68ZM132.952 134.584C133.176 134.584 133.372 134.649 133.54 134.78C133.708 134.911 133.792 135.13 133.792 135.438C133.792 135.737 133.708 135.956 133.54 136.096C133.372 136.227 133.176 136.292 132.952 136.292C132.709 136.292 132.504 136.227 132.336 136.096C132.177 135.956 132.098 135.737 132.098 135.438C132.098 135.13 132.177 134.911 132.336 134.78C132.504 134.649 132.709 134.584 132.952 134.584ZM139.146 143.936C139.342 143.936 139.543 143.917 139.748 143.88C139.953 143.843 140.131 143.801 140.28 143.754V144.874C140.121 144.949 139.907 145.009 139.636 145.056C139.365 145.112 139.095 145.14 138.824 145.14C138.413 145.14 138.035 145.07 137.69 144.93C137.354 144.79 137.083 144.547 136.878 144.202C136.673 143.857 136.57 143.376 136.57 142.76V138.588H135.52V137.916L136.626 137.356L137.144 135.76H138.054V137.454H140.21V138.588H138.054V142.732C138.054 143.143 138.152 143.446 138.348 143.642C138.553 143.838 138.819 143.936 139.146 143.936ZM143.693 137.454V145H142.209V137.454H143.693ZM142.965 134.584C143.189 134.584 143.385 134.649 143.553 134.78C143.721 134.911 143.805 135.13 143.805 135.438C143.805 135.737 143.721 135.956 143.553 136.096C143.385 136.227 143.189 136.292 142.965 136.292C142.723 136.292 142.517 136.227 142.349 136.096C142.191 135.956 142.111 135.737 142.111 135.438C142.111 135.13 142.191 134.911 142.349 134.78C142.517 134.649 142.723 134.584 142.965 134.584ZM148.138 145L145.282 137.454H146.85L148.418 141.864C148.483 142.051 148.548 142.261 148.614 142.494C148.688 142.727 148.754 142.951 148.81 143.166C148.866 143.381 148.903 143.567 148.922 143.726H148.978C149.006 143.567 149.048 143.381 149.104 143.166C149.169 142.942 149.239 142.718 149.314 142.494C149.388 142.261 149.454 142.051 149.51 141.864L151.078 137.454H152.646L149.776 145H148.138ZM160.883 141.22C160.883 141.845 160.799 142.401 160.631 142.886C160.463 143.371 160.225 143.782 159.917 144.118C159.609 144.454 159.236 144.711 158.797 144.888C158.358 145.056 157.864 145.14 157.313 145.14C156.809 145.14 156.342 145.056 155.913 144.888C155.484 144.711 155.11 144.454 154.793 144.118C154.485 143.782 154.242 143.371 154.065 142.886C153.888 142.401 153.799 141.841 153.799 141.206C153.799 140.375 153.939 139.671 154.219 139.092C154.508 138.513 154.919 138.075 155.451 137.776C155.992 137.468 156.627 137.314 157.355 137.314C158.046 137.314 158.652 137.468 159.175 137.776C159.707 138.075 160.122 138.513 160.421 139.092C160.729 139.671 160.883 140.38 160.883 141.22ZM155.325 141.22C155.325 141.78 155.395 142.265 155.535 142.676C155.675 143.077 155.894 143.385 156.193 143.6C156.492 143.815 156.874 143.922 157.341 143.922C157.808 143.922 158.19 143.815 158.489 143.6C158.788 143.385 159.007 143.077 159.147 142.676C159.287 142.265 159.357 141.78 159.357 141.22C159.357 140.641 159.282 140.156 159.133 139.764C158.993 139.372 158.774 139.073 158.475 138.868C158.186 138.653 157.803 138.546 157.327 138.546C156.627 138.546 156.118 138.779 155.801 139.246C155.484 139.713 155.325 140.371 155.325 141.22ZM171.007 137.314C171.912 137.314 172.64 137.641 173.191 138.294C173.751 138.947 174.031 139.923 174.031 141.22C174.031 142.069 173.905 142.788 173.653 143.376C173.401 143.964 173.046 144.407 172.589 144.706C172.132 144.995 171.6 145.14 170.993 145.14C170.61 145.14 170.274 145.093 169.985 145C169.696 144.897 169.448 144.767 169.243 144.608C169.047 144.44 168.874 144.263 168.725 144.076H168.627C168.655 144.244 168.678 144.445 168.697 144.678C168.716 144.902 168.725 145.103 168.725 145.28V148.36H167.241V137.454H168.445L168.655 138.462H168.725C168.874 138.257 169.052 138.065 169.257 137.888C169.462 137.711 169.71 137.571 169.999 137.468C170.288 137.365 170.624 137.314 171.007 137.314ZM170.657 138.532C170.19 138.532 169.817 138.625 169.537 138.812C169.257 138.989 169.052 139.26 168.921 139.624C168.8 139.979 168.734 140.431 168.725 140.982V141.206C168.725 141.785 168.786 142.279 168.907 142.69C169.028 143.091 169.229 143.399 169.509 143.614C169.798 143.819 170.19 143.922 170.685 143.922C171.105 143.922 171.446 143.81 171.707 143.586C171.978 143.353 172.178 143.031 172.309 142.62C172.44 142.209 172.505 141.733 172.505 141.192C172.505 140.371 172.356 139.722 172.057 139.246C171.758 138.77 171.292 138.532 170.657 138.532ZM179.269 137.314C180.221 137.314 180.93 137.524 181.397 137.944C181.863 138.355 182.097 139.003 182.097 139.89V145H181.047L180.753 143.95H180.697C180.482 144.221 180.258 144.445 180.025 144.622C179.801 144.799 179.539 144.93 179.241 145.014C178.951 145.098 178.597 145.14 178.177 145.14C177.729 145.14 177.323 145.061 176.959 144.902C176.604 144.734 176.324 144.482 176.119 144.146C175.913 143.801 175.811 143.371 175.811 142.858C175.811 142.093 176.1 141.509 176.679 141.108C177.267 140.707 178.158 140.487 179.353 140.45L180.641 140.408V139.988C180.641 139.428 180.515 139.036 180.263 138.812C180.011 138.588 179.656 138.476 179.199 138.476C178.807 138.476 178.433 138.532 178.079 138.644C177.724 138.756 177.388 138.891 177.071 139.05L176.595 137.972C176.949 137.785 177.355 137.631 177.813 137.51C178.279 137.379 178.765 137.314 179.269 137.314ZM179.619 141.402C178.76 141.439 178.163 141.584 177.827 141.836C177.5 142.079 177.337 142.424 177.337 142.872C177.337 143.264 177.453 143.549 177.687 143.726C177.929 143.903 178.233 143.992 178.597 143.992C179.185 143.992 179.67 143.829 180.053 143.502C180.435 143.175 180.627 142.685 180.627 142.032V141.374L179.619 141.402ZM188.526 137.314C188.656 137.314 188.801 137.323 188.96 137.342C189.118 137.351 189.249 137.365 189.352 137.384L189.198 138.77C189.095 138.742 188.974 138.719 188.834 138.7C188.694 138.681 188.563 138.672 188.442 138.672C188.162 138.672 187.891 138.728 187.63 138.84C187.378 138.943 187.149 139.097 186.944 139.302C186.738 139.498 186.575 139.741 186.454 140.03C186.342 140.319 186.286 140.651 186.286 141.024V145H184.802V137.454H185.978L186.174 138.798H186.23C186.388 138.527 186.58 138.28 186.804 138.056C187.028 137.832 187.284 137.655 187.574 137.524C187.863 137.384 188.18 137.314 188.526 137.314ZM193.821 137.314C194.773 137.314 195.483 137.524 195.949 137.944C196.416 138.355 196.649 139.003 196.649 139.89V145H195.599L195.305 143.95H195.249C195.035 144.221 194.811 144.445 194.577 144.622C194.353 144.799 194.092 144.93 193.793 145.014C193.504 145.098 193.149 145.14 192.729 145.14C192.281 145.14 191.875 145.061 191.511 144.902C191.157 144.734 190.877 144.482 190.671 144.146C190.466 143.801 190.363 143.371 190.363 142.858C190.363 142.093 190.653 141.509 191.231 141.108C191.819 140.707 192.711 140.487 193.905 140.45L195.193 140.408V139.988C195.193 139.428 195.067 139.036 194.815 138.812C194.563 138.588 194.209 138.476 193.751 138.476C193.359 138.476 192.986 138.532 192.631 138.644C192.277 138.756 191.941 138.891 191.623 139.05L191.147 137.972C191.502 137.785 191.908 137.631 192.365 137.51C192.832 137.379 193.317 137.314 193.821 137.314ZM194.171 141.402C193.313 141.439 192.715 141.584 192.379 141.836C192.053 142.079 191.889 142.424 191.889 142.872C191.889 143.264 192.006 143.549 192.239 143.726C192.482 143.903 192.785 143.992 193.149 143.992C193.737 143.992 194.223 143.829 194.605 143.502C194.988 143.175 195.179 142.685 195.179 142.032V141.374L194.171 141.402ZM17.3377 167.36C17.1044 167.36 16.8897 167.341 16.6937 167.304C16.4884 167.276 16.311 167.239 16.1617 167.192V166.002C16.311 166.039 16.4604 166.072 16.6097 166.1C16.759 166.128 16.927 166.142 17.1137 166.142C17.403 166.142 17.6457 166.058 17.8417 165.89C18.0377 165.731 18.1357 165.423 18.1357 164.966V156.454H19.6197V165.036C19.6197 165.503 19.5404 165.909 19.3817 166.254C19.223 166.609 18.9757 166.879 18.6397 167.066C18.313 167.262 17.879 167.36 17.3377 167.36ZM18.0377 154.438C18.0377 154.13 18.117 153.911 18.2757 153.78C18.4437 153.649 18.649 153.584 18.8917 153.584C19.1157 153.584 19.3117 153.649 19.4797 153.78C19.6477 153.911 19.7317 154.13 19.7317 154.438C19.7317 154.737 19.6477 154.956 19.4797 155.096C19.3117 155.227 19.1157 155.292 18.8917 155.292C18.649 155.292 18.4437 155.227 18.2757 155.096C18.117 154.956 18.0377 154.737 18.0377 154.438ZM28.8662 156.454V164H27.6762L27.4662 163.006H27.3962C27.2375 163.267 27.0322 163.482 26.7802 163.65C26.5282 163.818 26.2528 163.939 25.9542 164.014C25.6555 164.098 25.3475 164.14 25.0302 164.14C24.4422 164.14 23.9428 164.047 23.5322 163.86C23.1308 163.664 22.8228 163.365 22.6082 162.964C22.4028 162.553 22.3002 162.031 22.3002 161.396V156.454H23.7982V161.172C23.7982 161.76 23.9195 162.199 24.1622 162.488C24.4142 162.777 24.8015 162.922 25.3242 162.922C25.8468 162.922 26.2575 162.819 26.5562 162.614C26.8548 162.409 27.0648 162.11 27.1862 161.718C27.3168 161.317 27.3822 160.836 27.3822 160.276V156.454H28.8662ZM34.2125 156.314C34.6979 156.314 35.1365 156.407 35.5285 156.594C35.9205 156.781 36.2519 157.065 36.5225 157.448H36.5925L36.7605 156.454H37.9645V164.098C37.9645 164.807 37.8385 165.405 37.5865 165.89C37.3345 166.375 36.9472 166.739 36.4245 166.982C35.9112 167.234 35.2625 167.36 34.4785 167.36C33.9372 167.36 33.4379 167.323 32.9805 167.248C32.5232 167.173 32.1032 167.057 31.7205 166.898V165.596C31.9912 165.727 32.2759 165.834 32.5745 165.918C32.8732 166.011 33.1905 166.077 33.5265 166.114C33.8625 166.161 34.2079 166.184 34.5625 166.184C35.1785 166.184 35.6545 166.007 35.9905 165.652C36.3265 165.307 36.4945 164.817 36.4945 164.182V163.93C36.4945 163.809 36.4992 163.65 36.5085 163.454C36.5179 163.249 36.5272 163.099 36.5365 163.006H36.4805C36.2192 163.398 35.8972 163.687 35.5145 163.874C35.1412 164.051 34.7072 164.14 34.2125 164.14C33.2605 164.14 32.5139 163.799 31.9725 163.118C31.4405 162.427 31.1745 161.471 31.1745 160.248C31.1745 159.427 31.2959 158.727 31.5385 158.148C31.7812 157.56 32.1265 157.107 32.5745 156.79C33.0319 156.473 33.5779 156.314 34.2125 156.314ZM34.5205 157.546C34.1285 157.546 33.7972 157.653 33.5265 157.868C33.2559 158.073 33.0505 158.377 32.9105 158.778C32.7705 159.179 32.7005 159.674 32.7005 160.262C32.7005 161.139 32.8545 161.807 33.1625 162.264C33.4799 162.721 33.9419 162.95 34.5485 162.95C34.9032 162.95 35.2019 162.903 35.4445 162.81C35.6965 162.717 35.9019 162.572 36.0605 162.376C36.2285 162.18 36.3499 161.933 36.4245 161.634C36.5085 161.326 36.5505 160.957 36.5505 160.528V160.248C36.5505 159.604 36.4759 159.086 36.3265 158.694C36.1865 158.293 35.9672 158.003 35.6685 157.826C35.3699 157.639 34.9872 157.546 34.5205 157.546ZM43.6362 156.314C44.5882 156.314 45.2975 156.524 45.7642 156.944C46.2308 157.355 46.4642 158.003 46.4642 158.89V164H45.4142L45.1202 162.95H45.0642C44.8495 163.221 44.6255 163.445 44.3922 163.622C44.1682 163.799 43.9068 163.93 43.6082 164.014C43.3188 164.098 42.9642 164.14 42.5442 164.14C42.0962 164.14 41.6902 164.061 41.3262 163.902C40.9715 163.734 40.6915 163.482 40.4862 163.146C40.2808 162.801 40.1782 162.371 40.1782 161.858C40.1782 161.093 40.4675 160.509 41.0462 160.108C41.6342 159.707 42.5255 159.487 43.7202 159.45L45.0082 159.408V158.988C45.0082 158.428 44.8822 158.036 44.6302 157.812C44.3782 157.588 44.0235 157.476 43.5662 157.476C43.1742 157.476 42.8008 157.532 42.4462 157.644C42.0915 157.756 41.7555 157.891 41.4382 158.05L40.9622 156.972C41.3168 156.785 41.7228 156.631 42.1802 156.51C42.6468 156.379 43.1322 156.314 43.6362 156.314ZM43.9862 160.402C43.1275 160.439 42.5302 160.584 42.1942 160.836C41.8675 161.079 41.7042 161.424 41.7042 161.872C41.7042 162.264 41.8208 162.549 42.0542 162.726C42.2968 162.903 42.6002 162.992 42.9642 162.992C43.5522 162.992 44.0375 162.829 44.4202 162.502C44.8028 162.175 44.9942 161.685 44.9942 161.032V160.374L43.9862 160.402ZM52.8932 156.314C53.0239 156.314 53.1686 156.323 53.3272 156.342C53.4859 156.351 53.6166 156.365 53.7192 156.384L53.5652 157.77C53.4626 157.742 53.3412 157.719 53.2012 157.7C53.0612 157.681 52.9306 157.672 52.8092 157.672C52.5292 157.672 52.2586 157.728 51.9972 157.84C51.7452 157.943 51.5166 158.097 51.3112 158.302C51.1059 158.498 50.9426 158.741 50.8212 159.03C50.7092 159.319 50.6532 159.651 50.6532 160.024V164H49.1692V156.454H50.3452L50.5412 157.798H50.5972C50.7559 157.527 50.9472 157.28 51.1712 157.056C51.3952 156.832 51.6519 156.655 51.9412 156.524C52.2306 156.384 52.5479 156.314 52.8932 156.314ZM62.5612 156.314C63.2239 156.314 63.7932 156.454 64.2692 156.734C64.7452 157.005 65.1092 157.397 65.3612 157.91C65.6225 158.423 65.7532 159.03 65.7532 159.73V160.542H60.6852C60.7039 161.317 60.9045 161.909 61.2872 162.32C61.6792 162.731 62.2252 162.936 62.9252 162.936C63.4105 162.936 63.8399 162.894 64.2132 162.81C64.5959 162.717 64.9879 162.581 65.3892 162.404V163.636C65.0159 163.804 64.6332 163.93 64.2412 164.014C63.8585 164.098 63.4012 164.14 62.8692 164.14C62.1412 164.14 61.4972 163.995 60.9372 163.706C60.3772 163.417 59.9385 162.987 59.6212 162.418C59.3132 161.839 59.1592 161.13 59.1592 160.29C59.1592 159.441 59.2992 158.722 59.5792 158.134C59.8685 157.546 60.2652 157.098 60.7692 156.79C61.2825 156.473 61.8799 156.314 62.5612 156.314ZM62.5612 157.462C62.0292 157.462 61.5999 157.635 61.2732 157.98C60.9559 158.325 60.7692 158.815 60.7132 159.45H64.2692C64.2692 159.058 64.2085 158.713 64.0872 158.414C63.9659 158.115 63.7792 157.882 63.5272 157.714C63.2752 157.546 62.9532 157.462 62.5612 157.462ZM71.8469 156.314C72.7243 156.314 73.3963 156.533 73.8629 156.972C74.3296 157.411 74.5629 158.115 74.5629 159.086V164H73.0929V159.296C73.0929 158.708 72.9669 158.269 72.7149 157.98C72.4723 157.681 72.0803 157.532 71.5389 157.532C70.7736 157.532 70.2416 157.761 69.9429 158.218C69.6536 158.675 69.5089 159.333 69.5089 160.192V164H68.0249V156.454H69.2009L69.4109 157.462H69.4949C69.6629 157.201 69.8683 156.986 70.1109 156.818C70.3536 156.65 70.6243 156.524 70.9229 156.44C71.2216 156.356 71.5296 156.314 71.8469 156.314ZM89.776 156.314C90.6253 156.314 91.2647 156.533 91.694 156.972C92.1233 157.411 92.338 158.115 92.338 159.086V164H90.854V159.282C90.854 158.703 90.7373 158.269 90.504 157.98C90.28 157.681 89.9253 157.532 89.44 157.532C88.768 157.532 88.2873 157.742 87.998 158.162C87.7087 158.573 87.564 159.17 87.564 159.954V164H86.094V159.282C86.094 158.899 86.038 158.577 85.926 158.316C85.8233 158.055 85.6693 157.859 85.464 157.728C85.2587 157.597 84.9927 157.532 84.666 157.532C84.1993 157.532 83.8307 157.635 83.56 157.84C83.2893 158.045 83.0933 158.349 82.972 158.75C82.86 159.142 82.804 159.623 82.804 160.192V164H81.32V156.454H82.496L82.706 157.462H82.79C82.9487 157.201 83.14 156.986 83.364 156.818C83.5973 156.65 83.854 156.524 84.134 156.44C84.414 156.356 84.7033 156.314 85.002 156.314C85.5713 156.314 86.052 156.417 86.444 156.622C86.836 156.818 87.1207 157.121 87.298 157.532H87.41C87.6527 157.112 87.9887 156.804 88.418 156.608C88.8473 156.412 89.3 156.314 89.776 156.314ZM101.679 160.22C101.679 160.845 101.595 161.401 101.427 161.886C101.259 162.371 101.021 162.782 100.713 163.118C100.405 163.454 100.032 163.711 99.5931 163.888C99.1544 164.056 98.6597 164.14 98.1091 164.14C97.6051 164.14 97.1384 164.056 96.7091 163.888C96.2797 163.711 95.9064 163.454 95.5891 163.118C95.2811 162.782 95.0384 162.371 94.8611 161.886C94.6837 161.401 94.5951 160.841 94.5951 160.206C94.5951 159.375 94.7351 158.671 95.0151 158.092C95.3044 157.513 95.7151 157.075 96.2471 156.776C96.7884 156.468 97.4231 156.314 98.1511 156.314C98.8417 156.314 99.4484 156.468 99.9711 156.776C100.503 157.075 100.918 157.513 101.217 158.092C101.525 158.671 101.679 159.38 101.679 160.22ZM96.1211 160.22C96.1211 160.78 96.1911 161.265 96.3311 161.676C96.4711 162.077 96.6904 162.385 96.9891 162.6C97.2877 162.815 97.6704 162.922 98.1371 162.922C98.6037 162.922 98.9864 162.815 99.2851 162.6C99.5837 162.385 99.8031 162.077 99.9431 161.676C100.083 161.265 100.153 160.78 100.153 160.22C100.153 159.641 100.078 159.156 99.9291 158.764C99.7891 158.372 99.5697 158.073 99.2711 157.868C98.9817 157.653 98.5991 157.546 98.1231 157.546C97.4231 157.546 96.9144 157.779 96.5971 158.246C96.2797 158.713 96.1211 159.371 96.1211 160.22ZM106.57 164.14C105.665 164.14 104.932 163.813 104.372 163.16C103.822 162.507 103.546 161.536 103.546 160.248C103.546 158.951 103.826 157.971 104.386 157.308C104.946 156.645 105.684 156.314 106.598 156.314C106.981 156.314 107.312 156.365 107.592 156.468C107.882 156.561 108.129 156.692 108.334 156.86C108.549 157.028 108.731 157.215 108.88 157.42H108.964C108.946 157.289 108.922 157.103 108.894 156.86C108.866 156.608 108.852 156.384 108.852 156.188V153.36H110.336V164H109.174L108.922 162.992H108.852C108.712 163.207 108.535 163.403 108.32 163.58C108.115 163.748 107.868 163.883 107.578 163.986C107.289 164.089 106.953 164.14 106.57 164.14ZM106.92 162.922C107.648 162.922 108.162 162.721 108.46 162.32C108.759 161.909 108.908 161.298 108.908 160.486V160.262C108.908 159.375 108.764 158.699 108.474 158.232C108.194 157.765 107.672 157.532 106.906 157.532C106.3 157.532 105.842 157.779 105.534 158.274C105.226 158.759 105.072 159.427 105.072 160.276C105.072 161.125 105.226 161.779 105.534 162.236C105.842 162.693 106.304 162.922 106.92 162.922ZM119.732 160.22C119.732 160.845 119.648 161.401 119.48 161.886C119.312 162.371 119.074 162.782 118.766 163.118C118.458 163.454 118.085 163.711 117.646 163.888C117.207 164.056 116.713 164.14 116.162 164.14C115.658 164.14 115.191 164.056 114.762 163.888C114.333 163.711 113.959 163.454 113.642 163.118C113.334 162.782 113.091 162.371 112.914 161.886C112.737 161.401 112.648 160.841 112.648 160.206C112.648 159.375 112.788 158.671 113.068 158.092C113.357 157.513 113.768 157.075 114.3 156.776C114.841 156.468 115.476 156.314 116.204 156.314C116.895 156.314 117.501 156.468 118.024 156.776C118.556 157.075 118.971 157.513 119.27 158.092C119.578 158.671 119.732 159.38 119.732 160.22ZM114.174 160.22C114.174 160.78 114.244 161.265 114.384 161.676C114.524 162.077 114.743 162.385 115.042 162.6C115.341 162.815 115.723 162.922 116.19 162.922C116.657 162.922 117.039 162.815 117.338 162.6C117.637 162.385 117.856 162.077 117.996 161.676C118.136 161.265 118.206 160.78 118.206 160.22C118.206 159.641 118.131 159.156 117.982 158.764C117.842 158.372 117.623 158.073 117.324 157.868C117.035 157.653 116.652 157.546 116.176 157.546C115.476 157.546 114.967 157.779 114.65 158.246C114.333 158.713 114.174 159.371 114.174 160.22ZM127.574 156.202C127.574 156.435 127.565 156.669 127.546 156.902C127.527 157.135 127.509 157.327 127.49 157.476H127.588C127.747 157.215 127.943 157 128.176 156.832C128.419 156.664 128.685 156.538 128.974 156.454C129.273 156.37 129.576 156.328 129.884 156.328C130.481 156.328 130.981 156.426 131.382 156.622C131.793 156.809 132.101 157.107 132.306 157.518C132.521 157.919 132.628 158.442 132.628 159.086V164H131.158V159.296C131.158 158.708 131.032 158.269 130.78 157.98C130.537 157.681 130.145 157.532 129.604 157.532C129.091 157.532 128.685 157.635 128.386 157.84C128.097 158.045 127.887 158.349 127.756 158.75C127.635 159.142 127.574 159.627 127.574 160.206V164H126.09V153.36H127.574V156.202ZM141.978 160.22C141.978 160.845 141.894 161.401 141.726 161.886C141.558 162.371 141.32 162.782 141.012 163.118C140.704 163.454 140.331 163.711 139.892 163.888C139.454 164.056 138.959 164.14 138.408 164.14C137.904 164.14 137.438 164.056 137.008 163.888C136.579 163.711 136.206 163.454 135.888 163.118C135.58 162.782 135.338 162.371 135.16 161.886C134.983 161.401 134.894 160.841 134.894 160.206C134.894 159.375 135.034 158.671 135.314 158.092C135.604 157.513 136.014 157.075 136.546 156.776C137.088 156.468 137.722 156.314 138.45 156.314C139.141 156.314 139.748 156.468 140.27 156.776C140.802 157.075 141.218 157.513 141.516 158.092C141.824 158.671 141.978 159.38 141.978 160.22ZM136.42 160.22C136.42 160.78 136.49 161.265 136.63 161.676C136.77 162.077 136.99 162.385 137.288 162.6C137.587 162.815 137.97 162.922 138.436 162.922C138.903 162.922 139.286 162.815 139.584 162.6C139.883 162.385 140.102 162.077 140.242 161.676C140.382 161.265 140.452 160.78 140.452 160.22C140.452 159.641 140.378 159.156 140.228 158.764C140.088 158.372 139.869 158.073 139.57 157.868C139.281 157.653 138.898 157.546 138.422 157.546C137.722 157.546 137.214 157.779 136.896 158.246C136.579 158.713 136.42 159.371 136.42 160.22ZM148.004 156.314C148.134 156.314 148.279 156.323 148.438 156.342C148.596 156.351 148.727 156.365 148.83 156.384L148.676 157.77C148.573 157.742 148.452 157.719 148.312 157.7C148.172 157.681 148.041 157.672 147.92 157.672C147.64 157.672 147.369 157.728 147.108 157.84C146.856 157.943 146.627 158.097 146.422 158.302C146.216 158.498 146.053 158.741 145.932 159.03C145.82 159.319 145.764 159.651 145.764 160.024V164H144.28V156.454H145.456L145.652 157.798H145.708C145.866 157.527 146.058 157.28 146.282 157.056C146.506 156.832 146.762 156.655 147.052 156.524C147.341 156.384 147.658 156.314 148.004 156.314ZM152.131 156.454V164H150.647V156.454H152.131ZM151.403 153.584C151.627 153.584 151.823 153.649 151.991 153.78C152.159 153.911 152.243 154.13 152.243 154.438C152.243 154.737 152.159 154.956 151.991 155.096C151.823 155.227 151.627 155.292 151.403 155.292C151.16 155.292 150.955 155.227 150.787 155.096C150.628 154.956 150.549 154.737 150.549 154.438C150.549 154.13 150.628 153.911 150.787 153.78C150.955 153.649 151.16 153.584 151.403 153.584ZM159.865 164H154.209V163.062L158.101 157.602H154.447V156.454H159.753V157.504L155.945 162.852H159.865V164ZM168.596 160.22C168.596 160.845 168.512 161.401 168.344 161.886C168.176 162.371 167.938 162.782 167.63 163.118C167.322 163.454 166.948 163.711 166.51 163.888C166.071 164.056 165.576 164.14 165.026 164.14C164.522 164.14 164.055 164.056 163.626 163.888C163.196 163.711 162.823 163.454 162.506 163.118C162.198 162.782 161.955 162.371 161.778 161.886C161.6 161.401 161.512 160.841 161.512 160.206C161.512 159.375 161.652 158.671 161.932 158.092C162.221 157.513 162.632 157.075 163.164 156.776C163.705 156.468 164.34 156.314 165.068 156.314C165.758 156.314 166.365 156.468 166.888 156.776C167.42 157.075 167.835 157.513 168.134 158.092C168.442 158.671 168.596 159.38 168.596 160.22ZM163.038 160.22C163.038 160.78 163.108 161.265 163.248 161.676C163.388 162.077 163.607 162.385 163.906 162.6C164.204 162.815 164.587 162.922 165.054 162.922C165.52 162.922 165.903 162.815 166.202 162.6C166.5 162.385 166.72 162.077 166.86 161.676C167 161.265 167.07 160.78 167.07 160.22C167.07 159.641 166.995 159.156 166.846 158.764C166.706 158.372 166.486 158.073 166.188 157.868C165.898 157.653 165.516 157.546 165.04 157.546C164.34 157.546 163.831 157.779 163.514 158.246C163.196 158.713 163.038 159.371 163.038 160.22ZM174.719 156.314C175.596 156.314 176.268 156.533 176.735 156.972C177.202 157.411 177.435 158.115 177.435 159.086V164H175.965V159.296C175.965 158.708 175.839 158.269 175.587 157.98C175.344 157.681 174.952 157.532 174.411 157.532C173.646 157.532 173.114 157.761 172.815 158.218C172.526 158.675 172.381 159.333 172.381 160.192V164H170.897V156.454H172.073L172.283 157.462H172.367C172.535 157.201 172.74 156.986 172.983 156.818C173.226 156.65 173.496 156.524 173.795 156.44C174.094 156.356 174.402 156.314 174.719 156.314ZM182.851 162.936C183.047 162.936 183.248 162.917 183.453 162.88C183.659 162.843 183.836 162.801 183.985 162.754V163.874C183.827 163.949 183.612 164.009 183.341 164.056C183.071 164.112 182.8 164.14 182.529 164.14C182.119 164.14 181.741 164.07 181.395 163.93C181.059 163.79 180.789 163.547 180.583 163.202C180.378 162.857 180.275 162.376 180.275 161.76V157.588H179.225V156.916L180.331 156.356L180.849 154.76H181.759V156.454H183.915V157.588H181.759V161.732C181.759 162.143 181.857 162.446 182.053 162.642C182.259 162.838 182.525 162.936 182.851 162.936ZM188.841 156.314C189.793 156.314 190.502 156.524 190.969 156.944C191.435 157.355 191.669 158.003 191.669 158.89V164H190.619L190.325 162.95H190.269C190.054 163.221 189.83 163.445 189.597 163.622C189.373 163.799 189.111 163.93 188.813 164.014C188.523 164.098 188.169 164.14 187.749 164.14C187.301 164.14 186.895 164.061 186.531 163.902C186.176 163.734 185.896 163.482 185.691 163.146C185.485 162.801 185.383 162.371 185.383 161.858C185.383 161.093 185.672 160.509 186.251 160.108C186.839 159.707 187.73 159.487 188.925 159.45L190.213 159.408V158.988C190.213 158.428 190.087 158.036 189.835 157.812C189.583 157.588 189.228 157.476 188.771 157.476C188.379 157.476 188.005 157.532 187.651 157.644C187.296 157.756 186.96 157.891 186.643 158.05L186.167 156.972C186.521 156.785 186.927 156.631 187.385 156.51C187.851 156.379 188.337 156.314 188.841 156.314ZM189.191 160.402C188.332 160.439 187.735 160.584 187.399 160.836C187.072 161.079 186.909 161.424 186.909 161.872C186.909 162.264 187.025 162.549 187.259 162.726C187.501 162.903 187.805 162.992 188.169 162.992C188.757 162.992 189.242 162.829 189.625 162.502C190.007 162.175 190.199 161.685 190.199 161.032V160.374L189.191 160.402ZM195.858 164H194.374V153.36H195.858V164Z" fill="white"/>
</svg>
